<?xml version="1.0" encoding="UTF-8" standalone="no"?>
<!DOCTYPE svg PUBLIC "-//W3C//DTD SVG 1.1//EN" "http://www.w3.org/Graphics/SVG/1.1/DTD/svg11.dtd">
<svg width="100%" height="100%" viewBox="0 0 453 416" version="1.1" xmlns="http://www.w3.org/2000/svg" xmlns:xlink="http://www.w3.org/1999/xlink" xml:space="preserve" xmlns:serif="http://www.serif.com/" style="fill-rule:evenodd;fill:url(#_Linear1);clip-rule:evenodd;stroke-linejoin:round;stroke-miterlimit:2;">
    <g transform="matrix(1,0,0,1,-29.9908,-48.4267)">
        <path d="M225.46,56.36C239.14,48.59 255.83,46.48 271.08,50.24C287.44,54.23 301.95,65.12 310.42,79.67C319.58,94.89 321.49,114.06 315.99,130.91C331.58,137.43 347.23,143.84 362.82,150.38C369.98,136.91 381.85,125.92 396.12,120.41C412.2,114.11 430.94,114.76 446.42,122.49C461.54,129.78 473.5,143.35 478.78,159.29C482.38,170.06 482.98,181.81 480.48,192.9C476.88,209.11 466.53,223.67 452.46,232.49C438.01,241.8 419.6,244.53 403.01,240.14C393.22,237.62 384.15,232.57 376.66,225.81C352.76,248.29 328.92,270.83 305.01,293.32C318.39,309.55 322.51,332.5 316.01,352.46C331.65,358.88 347.24,365.42 362.87,371.87C369.59,359.11 380.58,348.63 393.82,342.86C408.21,336.54 425,335.93 439.81,341.18C456.55,347.07 470.5,360.3 477.25,376.71C482.11,388.46 483.23,401.7 480.51,414.11C477.03,430.06 467.02,444.44 453.35,453.35C440.14,462.16 423.46,465.47 407.86,462.63C390.91,459.69 375.53,449.27 366.18,434.88C355.74,419.21 353.27,398.83 359.04,380.98C343.42,374.5 327.79,368.01 312.17,361.53C305.5,374.22 294.66,384.7 281.51,390.49C264.61,398.18 244.25,397.63 227.72,389.19C215.85,383.19 206.08,373.36 199.91,361.6C184.26,368.09 168.62,374.6 152.96,381.07C156.71,392.95 157.07,405.93 153.58,417.92C148.25,436.7 133.68,452.55 115.44,459.48C103.31,464.15 89.71,464.89 77.14,461.59C59.64,457.08 44.43,444.56 36.5,428.33C30.41,416.27 28.65,402.18 31.11,388.93C34.25,371.72 45.1,356.17 59.98,347.03C73.07,338.76 89.33,335.85 104.53,338.68C123.51,342.1 140.29,354.91 149.15,371.97C164.8,365.49 180.44,358.98 196.09,352.5C189.59,332.59 193.66,309.64 206.98,293.41C183.08,270.88 159.2,248.34 135.29,225.82C125.81,234.34 113.82,240.1 101.13,241.66C85.33,243.78 68.79,239.59 55.98,230.08C42.57,220.39 33.21,205.24 30.74,188.86C28.46,174.31 31.41,158.91 39.23,146.39C47.44,132.88 60.88,122.63 76.13,118.44C92.41,113.84 110.52,116.18 125.01,124.94C135.3,130.93 143.57,140.02 149.19,150.46C164.81,143.97 180.44,137.5 196.06,131C192.38,119.39 191.96,106.75 195.19,94.98C199.52,78.72 210.77,64.51 225.46,56.36M248.6,58.82C234.55,60.75 221.5,68.68 213.18,80.14C204.42,92 201.04,107.62 204.05,122.05C206.73,135.59 215.04,147.84 226.5,155.51C237.08,162.69 250.31,165.8 262.99,164.08C276.9,162.31 289.92,154.66 298.34,143.46C305.78,133.7 309.68,121.3 309.05,109.04C308.46,92.46 299.42,76.54 285.64,67.35C274.93,60 261.43,56.97 248.6,58.82M83.59,126.84C70,129.23 57.54,137.25 49.64,148.55C41.76,159.57 38.47,173.7 40.55,187.07C42.39,199.56 48.93,211.25 58.54,219.42C69.83,229.14 85.35,233.75 100.12,231.67C115.86,229.68 130.32,220.04 138.46,206.46C145.42,195.07 147.77,180.97 144.91,167.93C142.04,154.21 133.38,141.87 121.57,134.35C110.46,127.17 96.6,124.44 83.59,126.84M409.6,126.83C396.21,129.17 383.92,136.97 375.97,147.99C367.83,159.1 364.39,173.46 366.49,187.06C368.67,201.96 377.61,215.69 390.33,223.74C401.11,230.71 414.47,233.53 427.15,231.52C442.26,229.28 456.06,219.99 464.07,207.01C470.75,196.37 473.38,183.28 471.41,170.87C469.25,156.52 460.83,143.29 448.81,135.17C437.5,127.4 423.1,124.36 409.6,126.83M312.19,140.08C305.21,153.29 293.72,164.1 279.86,169.78C264.78,176.04 247.23,176.03 232.15,169.79C218.32,164.13 206.8,153.38 199.89,140.17C184.26,146.67 168.64,153.16 153,159.61C159.53,179.51 155.38,202.43 142.06,218.62C165.98,241.14 189.84,263.73 213.78,286.22C225.23,275.86 240.51,269.81 255.99,269.92C271.47,269.77 286.74,275.86 298.24,286.16C322.1,263.63 346.03,241.16 369.84,218.57C356.54,202.35 352.48,179.4 359.01,159.51C343.39,153.06 327.78,146.58 312.19,140.08M249.1,280.19C235.95,281.88 223.59,288.76 215.17,298.99C206.16,309.73 201.76,324.14 203.22,338.07C204.57,352.8 212.55,366.71 224.45,375.46C234.29,382.84 246.75,386.58 259.02,385.83C274.52,385.09 289.39,376.99 298.59,364.54C306.82,353.64 310.54,339.47 308.69,325.94C306.93,311.83 299.1,298.67 287.69,290.22C276.79,282 262.62,278.36 249.1,280.19M81.52,348.68C69.06,351.42 57.72,358.87 50.2,369.17C41.99,380.23 38.42,394.58 40.47,408.19C42.67,424.06 52.6,438.58 66.5,446.51C78.28,453.43 92.81,455.43 106.04,452.03C119.82,448.62 131.95,439.33 139,427.04C145.96,415.11 147.96,400.4 144.4,387.05C140.94,373.68 131.97,361.88 120.08,354.86C108.63,347.99 94.55,345.77 81.52,348.68M407.44,348.69C393.31,351.78 380.7,360.97 373.34,373.41C365.89,385.75 363.88,401.2 367.89,415.04C371.95,429.63 382.65,442.15 396.35,448.57C407.58,453.92 420.72,455.09 432.73,451.84C447.4,447.99 460.08,437.43 466.68,423.8C473.02,410.96 473.82,395.51 468.8,382.09C464.14,369.4 454.42,358.68 442.26,352.8C431.56,347.53 419.07,346.11 407.44,348.69Z" style="fill:url(#_Linear1);fill-rule:nonzero;"/>
    </g>
    <g transform="matrix(1,0,0,1,-29.9908,-48.4267)">
        <path d="M250.42,72.59C256.39,70.76 263.22,72.02 268.06,75.99C274.39,81.01 276.88,90.22 273.84,97.72C270.79,105.98 261.52,111.29 252.85,109.64C243.99,108.29 236.89,100.01 236.97,91.04C236.73,82.8 242.54,74.93 250.42,72.59M252.39,82.45C245.95,84.81 244.91,94.55 250.69,98.23C255.87,102.38 264.55,98.68 265.08,92.04C266.33,85.3 258.54,79.48 252.39,82.45Z" style="fill-rule:nonzero;"/>
    </g>
    <g transform="matrix(1,0,0,1,-29.9908,-48.4267)">
        <path d="M234.51,114.7C238.57,113.56 242.87,113.93 247.04,113.97C250.35,114 252.54,117.52 255.99,117.15C259.75,117.52 262.19,113.55 265.93,113.93C272.53,113.56 280.11,113.8 284.79,119.23C290.86,125.24 289.23,134.32 289.39,142.02C289.83,145.11 287.17,148 284.04,147.73C265.67,147.79 247.29,147.73 228.92,147.76C226.38,148.02 223.41,146.76 222.89,144.03C222.51,139.4 222.72,134.73 222.76,130.08C222.9,123.14 227.9,116.71 234.51,114.7M233.83,126.79C231.69,130.03 232.76,134.14 232.52,137.79C248.21,137.8 263.89,137.79 279.58,137.79C279.51,133.21 280.73,126.82 275.52,124.49C271.58,123.46 267.05,123.34 263.41,125.43C257.77,128.15 251.19,126.99 245.83,124.19C241.85,123.7 236.5,122.96 233.83,126.79Z" style="fill-rule:nonzero;"/>
    </g>
    <g transform="matrix(1,0,0,1,-29.9908,-48.4267)">
        <path d="M87.27,140.25C96.35,137.16 107.14,142.19 110.63,151.12C113.9,158.65 111.52,168.09 105.09,173.19C99.1,178.24 89.91,178.93 83.25,174.8C77.11,171.22 73.36,163.99 74.02,156.91C74.52,149.34 80.02,142.45 87.27,140.25M89.2,150.22C82.71,152.74 81.96,162.69 87.98,166.17C93.45,170.15 102.12,165.86 102.13,159.05C102.85,152.44 95.1,147.23 89.2,150.22Z" style="fill-rule:nonzero;"/>
    </g>
    <g transform="matrix(1,0,0,1,-29.9908,-48.4267)">
        <path d="M413.24,140.25C419.05,138.39 425.72,139.54 430.54,143.28C435.36,146.92 438.24,152.94 438.04,158.98C437.97,165.4 434.28,171.58 428.75,174.81C422.69,178.51 414.53,178.38 408.61,174.44C402.8,170.76 399.33,163.76 399.97,156.91C400.46,149.33 405.98,142.44 413.24,140.25M415.21,150.2C411.09,151.9 408.75,156.85 410.12,161.11C411.47,166.04 417.36,169.01 422.12,167.13C427,165.51 429.49,159.44 427.36,154.81C425.47,150.27 419.64,148.13 415.21,150.2Z" style="fill-rule:nonzero;"/>
    </g>
    <g transform="matrix(1,0,0,1,-29.9908,-48.4267)">
        <path d="M72.25,182.2C76.1,181.38 80.08,181.63 84,181.69C87.34,181.76 89.61,185.23 93.08,184.88C96.81,185.13 99.28,181.23 103.04,181.65C108.09,181.65 113.58,181.15 118.06,183.99C122.97,186.85 126.24,192.33 126.32,198.02C126.39,202.36 126.48,206.71 126.28,211.04C126.18,213.72 123.5,215.68 120.92,215.39C102.29,215.41 83.65,215.42 65.02,215.39C62.47,215.66 59.85,213.66 59.78,211.03C59.58,206.7 59.67,202.35 59.73,198.02C59.79,190.73 65.19,183.95 72.25,182.2M71.05,194.16C68.56,197.4 69.75,201.76 69.5,205.53L116.55,205.53C116.43,201.05 117.74,194.91 112.88,192.39C108.85,191.05 104.05,191.04 100.27,193.17C94.63,195.84 88.07,194.66 82.73,191.85C78.86,191.47 73.82,190.69 71.05,194.16Z" style="fill-rule:nonzero;"/>
    </g>
    <g transform="matrix(1,0,0,1,-29.9908,-48.4267)">
        <path d="M397.38,182.47C401.45,181.27 405.77,181.66 409.97,181.69C413.32,181.7 415.57,185.17 419.02,184.88C422.78,185.21 425.27,181.27 429.02,181.65C433.59,181.7 438.46,181.15 442.7,183.25C448.39,185.85 452.33,191.85 452.38,198.12C452.44,202.41 452.53,206.71 452.33,211.01C452.26,213.7 449.55,215.68 446.96,215.39C428.32,215.41 409.68,215.43 391.04,215.39C388.48,215.65 385.9,213.63 385.83,211.01C385.63,206.69 385.72,202.36 385.78,198.04C385.84,191.08 390.75,184.55 397.38,182.47M397.14,194C394.45,197.21 395.71,201.71 395.45,205.53L442.5,205.53C442.48,202.83 442.65,200.11 442.37,197.42C441.98,194.32 439.16,191.69 436,191.65C432.89,191.5 429.58,191.19 426.81,192.91C421.06,195.85 414.2,194.8 408.68,191.85C404.88,191.48 399.94,190.71 397.14,194Z" style="fill-rule:nonzero;"/>
    </g>
    <g transform="matrix(1,0,0,1,-29.9908,-48.4267)">
        <path d="M252.41,293.6C258.19,292.46 264.44,294.16 268.79,298.15C273.47,302.31 275.88,308.89 274.88,315.1C274,321.46 269.61,327.18 263.71,329.73C257.75,332.42 250.42,331.69 245.1,327.88C239.39,323.96 236.2,316.73 237.16,309.86C238.05,301.9 244.54,295.02 252.41,293.6M253.44,303.51C247.01,305.04 244.55,313.99 249.3,318.57C253.72,323.67 263.13,321.59 264.8,315C267.18,308.38 260.06,301.24 253.44,303.51Z" style="fill-rule:nonzero;"/>
    </g>
    <g transform="matrix(1,0,0,1,-29.9908,-48.4267)">
        <path d="M236.47,335.72C240.26,335.25 244.1,335.29 247.91,335.53C250.74,336.22 252.91,338.91 256.04,338.66C259.76,338.98 262.2,335.08 265.9,335.41C270.58,335.44 275.58,334.91 279.89,337.13C285.54,339.81 289.35,345.85 289.35,352.11C289.37,356.41 289.52,360.72 289.26,365.02C289.04,367.56 286.48,369.34 284.02,369.16C265.67,369.24 247.32,369.17 228.96,369.2C226.28,369.5 223.13,368.02 222.85,365.07C222.59,360.39 222.67,355.68 222.81,351C223.22,343.59 229.15,336.95 236.47,335.72M236.19,346.13C231.3,348.67 232.61,354.79 232.51,359.29C248.2,359.28 263.89,359.28 279.59,359.29C279.33,355.35 280.68,350.57 277.6,347.42C275.42,344.95 271.88,345.29 268.92,345.28C266.17,345.02 263.97,346.91 261.46,347.63C256.37,349.27 250.85,348.22 246.23,345.75C243.01,345 239.3,344.91 236.19,346.13Z" style="fill-rule:nonzero;"/>
    </g>
    <g transform="matrix(1,0,0,1,-29.9908,-48.4267)">
        <path d="M87.53,361.67C93.23,359.93 99.72,361.06 104.45,364.69C109.76,368.61 112.74,375.44 111.94,382C111.32,387.98 107.64,393.54 102.38,396.47C96.29,400.01 88.2,399.7 82.4,395.69C76.93,392.08 73.6,385.5 74.03,378.95C74.26,371.09 80,363.85 87.53,361.67M89.45,371.55C83.23,373.78 81.76,382.96 87,386.99C91.89,391.51 100.86,388.59 101.98,381.98C103.87,375.05 95.92,368.47 89.45,371.55Z" style="fill-rule:nonzero;"/>
    </g>
    <g transform="matrix(1,0,0,1,-29.9908,-48.4267)">
        <path d="M413.42,361.69C418.89,360.01 425.08,360.95 429.77,364.23C435.17,367.89 438.41,374.49 437.96,381.01C437.74,387.6 433.63,393.8 427.78,396.78C421.53,400.11 413.4,399.52 407.73,395.26C402.02,391.18 398.97,383.76 400.19,376.85C401.23,369.81 406.61,363.7 413.42,361.69M416.19,371.27C409.74,372.93 407.46,382.07 412.44,386.52C417.13,391.57 426.68,388.94 427.9,382.09C429.85,375.46 422.62,368.89 416.19,371.27Z" style="fill-rule:nonzero;"/>
    </g>
    <g transform="matrix(1,0,0,1,-29.9908,-48.4267)">
        <path d="M72.42,403.65C75.91,402.92 79.52,403.17 83.06,403.16C86.84,402.65 89.24,406.67 92.99,406.38C96.08,406.64 98.26,404.07 101.04,403.29C108.13,402.82 116.49,402.48 121.64,408.34C127.75,414.27 126.2,423.32 126.34,430.99C126.79,434.06 124.29,437.19 121.08,436.81C102.37,436.83 83.66,436.84 64.95,436.81C62.21,437.11 59.63,434.76 59.75,431.99C59.65,427.67 59.65,423.34 59.77,419.02C60.05,411.86 65.46,405.31 72.42,403.65M70.82,415.86C68.57,419.13 69.73,423.34 69.46,427.05C85.17,427.04 100.87,427.04 116.58,427.05C116.49,422.45 117.78,416.02 112.57,413.66C108.7,412.69 104.2,412.42 100.6,414.46C94.96,417.28 88.28,416.19 82.88,413.34C78.89,412.84 73.55,412.11 70.82,415.86Z" style="fill-rule:nonzero;"/>
    </g>
    <g transform="matrix(1,0,0,1,-29.9908,-48.4267)">
        <path d="M398.5,403.65C402.32,402.89 406.27,403.14 410.15,403.2C413.43,403.27 415.61,406.71 419.03,406.38C422.11,406.64 424.31,404.1 427.07,403.29C434.15,402.83 442.49,402.46 447.65,408.3C454.02,414.51 452.21,424.01 452.35,432C452.48,434.78 449.85,437.11 447.12,436.81C428.38,436.83 409.63,436.84 390.89,436.81C388.18,437.06 385.71,434.71 385.8,432.01C385.73,427.35 385.61,422.68 385.91,418.03C386.59,411.23 391.86,405.22 398.5,403.65M397.27,415.26C394.36,418.47 395.71,423.14 395.42,427.05C411.12,427.03 426.83,427.04 442.54,427.05C442.26,423.34 443.44,419.1 441.16,415.84C438.46,412.1 433.22,412.93 429.26,413.29C425.17,415.29 420.63,416.8 416.04,415.88C412.47,415.58 409.6,412.74 405.95,413.02C402.97,413.01 399.39,412.71 397.27,415.26Z" style="fill-rule:nonzero;"/>
    </g>
    <defs>
        <linearGradient id="_Linear1" x1="0" y1="0" x2="1" y2="0" gradientUnits="userSpaceOnUse" gradientTransform="matrix(2.54234e-14,415.195,-415.195,2.54234e-14,29.9908,48.4267)"><stop offset="0" style="stop-color:#f109fd;stop-opacity:1"/><stop offset="0.5" style="stop-color:#8c62f0;stop-opacity:1"/><stop offset="1" style="stop-color:#29b8e4;stop-opacity:1"/></linearGradient>
    </defs>
</svg>
