<?xml version="1.0" encoding="UTF-8" standalone="no"?>
<!DOCTYPE svg PUBLIC "-//W3C//DTD SVG 1.1//EN" "http://www.w3.org/Graphics/SVG/1.1/DTD/svg11.dtd">
<svg width="100%" height="100%" viewBox="0 0 630 630" version="1.1" xmlns="http://www.w3.org/2000/svg" xmlns:xlink="http://www.w3.org/1999/xlink" xml:space="preserve" xmlns:serif="http://www.serif.com/" style="fill-rule:evenodd;clip-rule:evenodd;stroke-linejoin:round;stroke-miterlimit:2;">
    <rect id="background" x="0" y="0" width="630" height="630" style="fill:rgb(252,124,0);"/>
    <g transform="matrix(1,0,0,1,143.879,149.952)">
        <g transform="matrix(288,0,0,288,123.64,427.653)">
            <path d="M0.066,-0.297L0.111,-0.662L0.489,-0.662L0.489,-0.572L0.206,-0.572L0.195,-0.478C0.194,-0.473 0.192,-0.456 0.191,-0.452C0.191,-0.448 0.188,-0.431 0.188,-0.426C0.199,-0.431 0.21,-0.434 0.22,-0.437C0.231,-0.44 0.242,-0.442 0.251,-0.443C0.261,-0.444 0.269,-0.445 0.277,-0.445C0.285,-0.446 0.291,-0.446 0.296,-0.446C0.328,-0.446 0.359,-0.44 0.387,-0.428C0.415,-0.416 0.439,-0.4 0.459,-0.379C0.479,-0.359 0.495,-0.335 0.507,-0.307C0.518,-0.28 0.524,-0.25 0.524,-0.219C0.524,-0.19 0.519,-0.162 0.509,-0.134C0.499,-0.107 0.484,-0.082 0.464,-0.061C0.444,-0.039 0.419,-0.022 0.388,-0.01C0.357,0.003 0.321,0.01 0.28,0.01C0.252,0.01 0.225,0.006 0.2,-0.002C0.176,-0.011 0.153,-0.023 0.133,-0.04C0.112,-0.056 0.095,-0.077 0.08,-0.102C0.065,-0.127 0.053,-0.156 0.045,-0.19L0.162,-0.19C0.167,-0.172 0.174,-0.157 0.183,-0.143C0.191,-0.129 0.201,-0.118 0.211,-0.108C0.221,-0.099 0.232,-0.091 0.244,-0.086C0.256,-0.082 0.268,-0.079 0.28,-0.079C0.298,-0.079 0.315,-0.083 0.331,-0.09C0.347,-0.097 0.36,-0.107 0.372,-0.119C0.384,-0.132 0.393,-0.147 0.4,-0.164C0.407,-0.181 0.41,-0.199 0.41,-0.219C0.41,-0.239 0.406,-0.257 0.399,-0.273C0.391,-0.29 0.382,-0.304 0.369,-0.316C0.357,-0.328 0.343,-0.338 0.328,-0.344C0.312,-0.351 0.297,-0.354 0.28,-0.354C0.271,-0.354 0.262,-0.353 0.251,-0.351C0.241,-0.348 0.231,-0.344 0.222,-0.339C0.212,-0.334 0.202,-0.328 0.193,-0.321C0.184,-0.314 0.176,-0.306 0.168,-0.297L0.066,-0.297Z" style="fill-rule:nonzero;"/>
        </g>
        <g transform="matrix(288,0,0,288,282.265,427.653)">
            <path d="M0.325,-0L0.325,-0.156L0.037,-0.156L0.037,-0.255L0.33,-0.662L0.44,-0.662L0.44,-0.244L0.532,-0.244L0.532,-0.156L0.44,-0.156L0.44,-0L0.325,-0ZM0.155,-0.244L0.325,-0.244L0.325,-0.485L0.155,-0.244Z" style="fill-rule:nonzero;"/>
        </g>
    </g>
    <g transform="matrix(1,0,0,1,129.114,-78.3385)">
        <g transform="matrix(270,0,0,270,123.64,427.653)">
            <path d="M0.599,-0.72L0.599,-0.592L0.384,-0.592L0.384,-0L0.232,-0L0.232,-0.592L0.016,-0.592L0.016,-0.72L0.599,-0.72Z" style="fill-rule:nonzero;"/>
        </g>
        <g transform="matrix(270,0,0,270,288.567,427.653)">
            <path d="M0.584,-0.054C0.53,-0.005 0.462,0.02 0.378,0.02C0.274,0.02 0.193,-0.013 0.134,-0.08C0.075,-0.146 0.045,-0.238 0.045,-0.354C0.045,-0.48 0.079,-0.576 0.146,-0.645C0.205,-0.704 0.279,-0.733 0.37,-0.733C0.491,-0.733 0.579,-0.694 0.635,-0.614C0.666,-0.57 0.683,-0.525 0.685,-0.48L0.535,-0.48C0.525,-0.514 0.512,-0.541 0.497,-0.558C0.47,-0.589 0.429,-0.605 0.375,-0.605C0.321,-0.605 0.278,-0.583 0.246,-0.539C0.215,-0.495 0.199,-0.432 0.199,-0.352C0.199,-0.271 0.215,-0.21 0.249,-0.17C0.282,-0.13 0.325,-0.11 0.376,-0.11C0.429,-0.11 0.469,-0.127 0.497,-0.162C0.512,-0.18 0.525,-0.208 0.535,-0.245L0.684,-0.245C0.671,-0.167 0.637,-0.103 0.584,-0.054Z" style="fill-rule:nonzero;"/>
        </g>
    </g>
    <g transform="matrix(1,0,0,0.985992,0,7.17572)">
        <rect x="95.781" y="-7.278" width="19.654" height="638.95"/>
    </g>
    <g transform="matrix(6.245e-17,1,-0.985992,5.89806e-17,622.824,-0.282141)">
        <rect x="95.781" y="-7.278" width="19.654" height="638.95"/>
    </g>
    <g transform="matrix(1.13372,0,0,1.26829,11.1922,-58.7124)">
        <rect x="74.612" y="121.59" width="17.336" height="15.497" style="fill:rgb(252,124,0);"/>
    </g>
</svg>
