<?xml version="1.0" encoding="UTF-8" standalone="no"?>
<!DOCTYPE svg PUBLIC "-//W3C//DTD SVG 1.1//EN" "http://www.w3.org/Graphics/SVG/1.1/DTD/svg11.dtd">
<svg width="100%" height="100%" viewBox="0 0 1240 700" version="1.1" xmlns="http://www.w3.org/2000/svg" xmlns:xlink="http://www.w3.org/1999/xlink" xml:space="preserve" xmlns:serif="http://www.serif.com/" style="fill-rule:evenodd;clip-rule:evenodd;">
    <g transform="matrix(1,0,0,1,-10,-10)">
        <rect x="205" y="431" width="260" height="28" style="fill:rgb(18,100,163);"/>
    </g>
    <g transform="matrix(1.39949,0,0,1,-13.9949,-10)">
        <path d="M10,30C10,18.954 18.954,10 30,10L761,10C772.046,10 781,18.954 781,30L781,690C781,701.046 772.046,710 761,710L30,710C18.954,710 10,701.046 10,690L10,30Z" style="fill:white;"/>
    </g>
    <g transform="matrix(1,0,0,1,-10,-10)">
        <rect x="70" y="50" width="238" height="660" style="fill:rgb(62,16,63);"/>
    </g>
    <g transform="matrix(1,0,0,1,-10,-10)">
        <path d="M10,50L73,50L73,710L30,710C18.954,710 10,701.046 10,690L10,50Z" style="fill:rgb(62,16,63);"/>
    </g>
    <g transform="matrix(1,0,0,1,-10,-10)">
        <path d="M24,72C24,68.686 26.686,66 30,66L50,66C53.314,66 56,68.686 56,72L56,92C56,95.314 53.314,98 50,98L30,98C26.686,98 24,95.314 24,92L24,72Z" style="fill:white;fill-rule:nonzero;"/>
    </g>
    <g transform="matrix(1,0,0,1,-10,-10)">
        <path d="M24,72C24,68.686 26.686,66 30,66L50,66C53.314,66 56,68.686 56,72L56,92C56,95.314 53.314,98 50,98L30,98C26.686,98 24,95.314 24,92L24,72Z" style="fill:none;fill-rule:nonzero;stroke:white;stroke-width:1px;"/>
    </g>
    <g transform="matrix(1,0,0,1,-10,-10)">
        <path d="M20,71C20,66.029 24.029,62 29,62L51,62C55.971,62 60,66.029 60,71L60,93C60,97.971 55.971,102 51,102L29,102C24.029,102 20,97.971 20,93L20,71Z" style="fill:none;fill-rule:nonzero;stroke:white;stroke-opacity:0.8;stroke-width:2px;"/>
    </g>
    <g transform="matrix(1,0,0,1,-10,-10)">
        <path d="M24,125C24,121.686 26.686,119 30,119L50,119C53.314,119 56,121.686 56,125L56,145C56,148.314 53.314,151 50,151L30,151C26.686,151 24,148.314 24,145L24,125Z" style="fill:white;fill-opacity:0.3;"/>
    </g>
    <g transform="matrix(1,0,0,1,-10,-10)">
        <path d="M45.98,181L41,181L41,176.02C41,175.43 40.58,175 40,175C39.42,175 39,175.43 39,176.02L39,181L34.02,181C33.43,181 33,181.42 33,182C33,182.58 33.43,183 34.02,183L39,183L39,187.98C39,188.57 39.42,189 40,189C40.58,189 41,188.57 41,187.98L41,183L45.98,183C46.57,183 47,182.58 47,182C47,181.42 46.57,181 45.98,181Z" style="fill:white;fill-opacity:0.8;fill-rule:nonzero;"/>
    </g>
    <g transform="matrix(1,0,0,1,-10,-10)">
        <circle cx="90" cy="93" r="4" style="fill:rgb(30,165,129);"/>
    </g>
    <g transform="matrix(1,0,0,1,-10,-10)">
        <path d="M330,114.5L70,114.5" style="fill:none;fill-rule:nonzero;stroke:white;stroke-opacity:0.1;stroke-width:1px;"/>
    </g>
    <g transform="matrix(1,0,0,1,-10,-10)">
        <path d="M308,57C308,53.686 310.686,51 314,51L765,51C769.418,51 773,54.582 773,59L773,114L308,114L308,57Z" style="fill:white;fill-rule:nonzero;"/>
    </g>
    <g transform="matrix(1,0,0,1,278.215,-12.3206)">
        <path d="M743,74C738.03,74 734,78.03 734,83C734,87.97 738.03,92 743,92C747.97,92 752,87.97 752,83C752,78.03 747.97,74 743,74ZM743,75.5C747.14,75.5 750.5,78.86 750.5,83C750.5,87.14 747.14,90.5 743,90.5C738.86,90.5 735.5,87.14 735.5,83C735.5,78.86 738.86,75.5 743,75.5ZM743,80.5C743.55,80.5 744,80.05 744,79.5C744,78.95 743.55,78.5 743,78.5C742.45,78.5 742,78.95 742,79.5C742,80.05 742.45,80.5 743,80.5ZM742.25,82.76L742.25,87.24C742.25,87.68 742.57,88 743,88C743.43,88 743.75,87.67 743.75,87.23L743.75,82.76C743.75,82.32 743.43,82 743,82C742.57,82 742.25,82.32 742.25,82.76Z" style="fill:rgb(134,134,134);fill-opacity:0.85;fill-rule:nonzero;"/>
    </g>
    <g transform="matrix(1,0,0,1,-10,-10)">
        <path d="M442.484,73.63C442.484,72.934 441.746,72.586 440.066,72.586C439.682,72.586 439.268,72.604 438.83,72.628C438.506,71.008 437.78,69.4 437,69.4C436.22,69.4 435.494,71.008 435.17,72.628C434.732,72.604 434.318,72.586 433.934,72.586C432.218,72.586 431.516,72.952 431.516,73.63C431.516,74.362 432.554,75.28 434.048,76.186C433.568,77.218 433.244,78.334 433.244,79.132C433.244,79.84 433.484,80.2 433.988,80.2C434.756,80.2 436.028,79.39 437,78.418C437.972,79.39 439.244,80.2 440.012,80.2C440.528,80.2 440.756,79.816 440.756,79.132C440.756,78.334 440.432,77.218 439.952,76.186C441.446,75.28 442.484,74.362 442.484,73.63Z" style="fill:rgb(242,199,68);fill-rule:nonzero;"/>
    </g>
    <g transform="matrix(1,0,0,1,-10,-10)">
        <path d="M367.5,91L367.5,100" style="fill:none;fill-rule:nonzero;stroke:rgb(29,28,29);stroke-opacity:0.13;stroke-width:1px;"/>
    </g>
    <g transform="matrix(1,0,0,1,-10,-10)">
        <path d="M404.5,91L404.5,100" style="fill:none;fill-rule:nonzero;stroke:rgb(29,28,29);stroke-opacity:0.13;stroke-width:1px;"/>
    </g>
    <g transform="matrix(2.75955,0,0,1,-734.934,-10)">
        <path d="M602,94.5C602,91.464 601.107,89 600.007,89L413.993,89C412.893,89 412,91.464 412,94.5C412,97.536 412.893,100 413.993,100L600.007,100C601.107,100 602,97.536 602,94.5Z" style="fill:rgb(196,196,196);fill-opacity:0.7;"/>
    </g>
    <g transform="matrix(1,0,0,1,-10,-10)">
        <path d="M358,94.5C358,91.464 355.536,89 352.5,89L334.5,89C331.464,89 329,91.464 329,94.5C329,97.536 331.464,100 334.5,100L352.5,100C355.536,100 358,97.536 358,94.5Z" style="fill:rgb(196,196,196);fill-opacity:0.7;"/>
    </g>
    <g transform="matrix(1,0,0,1,-10,-10)">
        <path d="M396,94.5C396,91.464 393.536,89 390.5,89L381.5,89C378.464,89 376,91.464 376,94.5C376,97.536 378.464,100 381.5,100L390.5,100C393.536,100 396,97.536 396,94.5Z" style="fill:rgb(196,196,196);fill-opacity:0.7;"/>
    </g>
    <g transform="matrix(1,0,0,1,-10,-10)">
        <path d="M426,75C426,71.689 423.311,69 420,69L335,69C331.689,69 329,71.689 329,75C329,78.311 331.689,81 335,81L420,81C423.311,81 426,78.311 426,75Z" style="fill:rgb(134,134,134);fill-opacity:0.85;"/>
    </g>
    <g transform="matrix(1,0,0,1,-10,-10)">
        <rect x="70" y="304" width="238" height="27" style="fill:rgb(18,100,163);"/>
    </g>
    <g transform="matrix(1,0,0,1,-10,-10)">
        <g opacity="0.8">
            <path d="M168.28,69.47C168.14,69.33 167.94,69.25 167.75,69.25C167.56,69.25 167.37,69.32 167.22,69.47L165,71.69L162.78,69.47C162.64,69.33 162.44,69.25 162.25,69.25C162.06,69.25 161.86,69.32 161.72,69.47C161.58,69.62 161.5,69.81 161.5,70C161.5,70.19 161.58,70.39 161.72,70.53L164.47,73.28C164.62,73.43 164.81,73.5 165,73.5C165.19,73.5 165.38,73.42 165.53,73.28L168.28,70.53C168.43,70.39 168.5,70.19 168.5,70C168.5,69.81 168.43,69.62 168.28,69.47Z" style="fill:white;fill-rule:nonzero;"/>
        </g>
    </g>
    <g transform="matrix(1,0,0,1,-10,-10)">
        <path d="M293,82C293,72.066 284.934,64 275,64C265.066,64 257,72.066 257,82C257,91.934 265.066,100 275,100C284.934,100 293,91.934 293,82Z" style="fill:white;"/>
    </g>
    <g transform="matrix(1,0,0,1,-10,-10)">
        <path d="M282.424,75.536L281.856,74.968C281.232,74.344 280.32,74.248 279.824,74.744L273.576,80.992C273.248,81.32 272.992,81.712 272.832,82.152L272.32,83.536C271.896,84.608 272.832,85.528 273.928,85.112L275.296,84.56C275.696,84.4 276.064,84.16 276.368,83.856L282.648,77.576C283.152,77.072 283.048,76.16 282.424,75.536ZM281,81.2L281,85.696C281,87.288 279.888,88.4 278.296,88.4L271.704,88.4C270.112,88.4 269,87.288 269,85.696L269,79.104C269,77.512 270.112,76.4 271.704,76.4L276.2,76.4C277.152,76.4 277.144,75.2 276.2,75.2L271.464,75.2C269.424,75.2 267.8,76.832 267.8,78.864L267.8,85.936C267.8,87.968 269.424,89.6 271.464,89.6L278.536,89.6C280.496,89.6 282.2,87.968 282.2,85.936L282.2,81.2C282.2,80.28 281,80.28 281,81.2ZM281.696,76.816L280.768,77.752L279.64,76.616L280.56,75.696C280.648,75.608 280.864,75.64 281.016,75.8L281.584,76.368C281.744,76.528 281.776,76.744 281.696,76.816ZM275.344,83.192C275.2,83.328 275.072,83.408 274.92,83.464L273.4,84.056C273.384,84.064 273.376,84.056 273.384,84.04L273.936,82.488C274,82.312 274.088,82.176 274.216,82.04L278.784,77.472L279.912,78.6L275.344,83.192Z" style="fill:rgb(74,21,75);fill-rule:nonzero;"/>
    </g>
    <g transform="matrix(1,0,0,1,-10,-10)">
        <g opacity="0.8">
            <path d="M106.29,315L104.75,315L105.23,312.59C105.24,312.55 105.24,312.52 105.24,312.48C105.24,312.21 105.03,312 104.72,312C104.48,312 104.3,312.17 104.25,312.43L103.73,315L101.26,315L101.74,312.59C101.75,312.55 101.75,312.52 101.75,312.48C101.75,312.21 101.54,312 101.23,312C100.99,312 100.81,312.17 100.76,312.43L100.24,315L98.51,315C98.21,315 98,315.21 98,315.5C98,315.79 98.21,316 98.51,316L100.04,316L99.44,319L97.71,319C97.41,319 97.2,319.21 97.2,319.5C97.2,319.79 97.41,320 97.71,320L99.24,320L98.76,322.41C98.75,322.45 98.75,322.48 98.75,322.52C98.75,322.79 98.96,323 99.27,323C99.51,323 99.69,322.83 99.74,322.57L100.26,320L102.73,320L102.25,322.41C102.24,322.45 102.24,322.48 102.24,322.52C102.24,322.79 102.45,323 102.76,323C103,323 103.18,322.83 103.23,322.57L103.75,320L105.48,320C105.78,320 105.99,319.79 105.99,319.5C105.99,319.21 105.78,319 105.48,319L103.95,319L104.55,316L106.29,316C106.59,316 106.8,315.79 106.8,315.5C106.8,315.21 106.59,315 106.29,315ZM102.93,319L100.46,319L101.06,316L103.53,316L102.93,319Z" style="fill:white;fill-rule:nonzero;"/>
        </g>
    </g>
    <g transform="matrix(1,0,0,1,-10,-10)">
        <g opacity="0.8">
            <path d="M106.29,344L104.75,344L105.23,341.59C105.24,341.55 105.24,341.52 105.24,341.48C105.24,341.21 105.03,341 104.72,341C104.48,341 104.3,341.17 104.25,341.43L103.73,344L101.26,344L101.74,341.59C101.75,341.55 101.75,341.52 101.75,341.48C101.75,341.21 101.54,341 101.23,341C100.99,341 100.81,341.17 100.76,341.43L100.24,344L98.51,344C98.21,344 98,344.21 98,344.5C98,344.79 98.21,345 98.51,345L100.04,345L99.44,348L97.71,348C97.41,348 97.2,348.21 97.2,348.5C97.2,348.79 97.41,349 97.71,349L99.24,349L98.76,351.41C98.75,351.45 98.75,351.48 98.75,351.52C98.75,351.79 98.96,352 99.27,352C99.51,352 99.69,351.83 99.74,351.57L100.26,349L102.73,349L102.25,351.41C102.24,351.45 102.24,351.48 102.24,351.52C102.24,351.79 102.45,352 102.76,352C103,352 103.18,351.83 103.23,351.57L103.75,349L105.48,349C105.78,349 105.99,348.79 105.99,348.5C105.99,348.21 105.78,348 105.48,348L103.95,348L104.55,345L106.29,345C106.59,345 106.8,344.79 106.8,344.5C106.8,344.21 106.59,344 106.29,344ZM102.93,348L100.46,348L101.06,345L103.53,345L102.93,348Z" style="fill:white;fill-rule:nonzero;"/>
        </g>
    </g>
    <g transform="matrix(1,0,0,1,-10,-10)">
        <g opacity="0.8">
            <path d="M287.586,389.6L283.602,389.6L283.602,385.616C283.602,385.144 283.266,384.8 282.802,384.8C282.338,384.8 282.002,385.144 282.002,385.616L282.002,389.6L278.018,389.6C277.546,389.6 277.202,389.936 277.202,390.4C277.202,390.864 277.546,391.2 278.018,391.2L282.002,391.2L282.002,395.184C282.002,395.656 282.338,396 282.802,396C283.266,396 283.602,395.656 283.602,395.184L283.602,391.2L287.586,391.2C288.058,391.2 288.402,390.864 288.402,390.4C288.402,389.936 288.058,389.6 287.586,389.6Z" style="fill:white;fill-rule:nonzero;"/>
        </g>
    </g>
    <g transform="matrix(1,0,0,1,-10,-10)">
        <g opacity="0.8">
            <path d="M105.29,415L103.75,415L104.23,412.59C104.24,412.55 104.24,412.52 104.24,412.48C104.24,412.21 104.03,412 103.72,412C103.48,412 103.3,412.17 103.25,412.43L102.73,415L100.26,415L100.74,412.59C100.75,412.55 100.75,412.52 100.75,412.48C100.75,412.21 100.54,412 100.23,412C99.99,412 99.81,412.17 99.76,412.43L99.24,415L97.51,415C97.21,415 97,415.21 97,415.5C97,415.79 97.21,416 97.51,416L99.04,416L98.44,419L96.71,419C96.41,419 96.2,419.21 96.2,419.5C96.2,419.79 96.41,420 96.71,420L98.24,420L97.76,422.41C97.75,422.45 97.75,422.48 97.75,422.52C97.75,422.79 97.96,423 98.27,423C98.51,423 98.69,422.83 98.74,422.57L99.26,420L101.73,420L101.25,422.41C101.24,422.45 101.24,422.48 101.24,422.52C101.24,422.79 101.45,423 101.76,423C102,423 102.18,422.83 102.23,422.57L102.75,420L104.48,420C104.78,420 104.99,419.79 104.99,419.5C104.99,419.21 104.78,419 104.48,419L102.95,419L103.55,416L105.29,416C105.59,416 105.8,415.79 105.8,415.5C105.8,415.21 105.59,415 105.29,415ZM101.93,419L99.46,419L100.06,416L102.53,416L101.93,419Z" style="fill:white;fill-rule:nonzero;"/>
        </g>
    </g>
    <g transform="matrix(1,0,0,1,-10,-10)">
        <g opacity="0.8">
            <path d="M105.29,444L103.75,444L104.23,441.59C104.24,441.55 104.24,441.52 104.24,441.48C104.24,441.21 104.03,441 103.72,441C103.48,441 103.3,441.17 103.25,441.43L102.73,444L100.26,444L100.74,441.59C100.75,441.55 100.75,441.52 100.75,441.48C100.75,441.21 100.54,441 100.23,441C99.99,441 99.81,441.17 99.76,441.43L99.24,444L97.51,444C97.21,444 97,444.21 97,444.5C97,444.79 97.21,445 97.51,445L99.04,445L98.44,448L96.71,448C96.41,448 96.2,448.21 96.2,448.5C96.2,448.79 96.41,449 96.71,449L98.24,449L97.76,451.41C97.75,451.45 97.75,451.48 97.75,451.52C97.75,451.79 97.96,452 98.27,452C98.51,452 98.69,451.83 98.74,451.57L99.26,449L101.73,449L101.25,451.41C101.24,451.45 101.24,451.48 101.24,451.52C101.24,451.79 101.45,452 101.76,452C102,452 102.18,451.83 102.23,451.57L102.75,449L104.48,449C104.78,449 104.99,448.79 104.99,448.5C104.99,448.21 104.78,448 104.48,448L102.95,448L103.55,445L105.29,445C105.59,445 105.8,444.79 105.8,444.5C105.8,444.21 105.59,444 105.29,444ZM101.93,448L99.46,448L100.06,445L102.53,445L101.93,448Z" style="fill:white;fill-rule:nonzero;"/>
        </g>
    </g>
    <g transform="matrix(1,0,0,1,-10,-10)">
        <g opacity="0.8">
            <path d="M105.29,471L103.75,471L104.23,468.59C104.24,468.55 104.24,468.52 104.24,468.48C104.24,468.21 104.03,468 103.72,468C103.48,468 103.3,468.17 103.25,468.43L102.73,471L100.26,471L100.74,468.59C100.75,468.55 100.75,468.52 100.75,468.48C100.75,468.21 100.54,468 100.23,468C99.99,468 99.81,468.17 99.76,468.43L99.24,471L97.51,471C97.21,471 97,471.21 97,471.5C97,471.79 97.21,472 97.51,472L99.04,472L98.44,475L96.71,475C96.41,475 96.2,475.21 96.2,475.5C96.2,475.79 96.41,476 96.71,476L98.24,476L97.76,478.41C97.75,478.45 97.75,478.48 97.75,478.52C97.75,478.79 97.96,479 98.27,479C98.51,479 98.69,478.83 98.74,478.57L99.26,476L101.73,476L101.25,478.41C101.24,478.45 101.24,478.48 101.24,478.52C101.24,478.79 101.45,479 101.76,479C102,479 102.18,478.83 102.23,478.57L102.75,476L104.48,476C104.78,476 104.99,475.79 104.99,475.5C104.99,475.21 104.78,475 104.48,475L102.95,475L103.55,472L105.29,472C105.59,472 105.8,471.79 105.8,471.5C105.8,471.21 105.59,471 105.29,471ZM101.93,475L99.46,475L100.06,472L102.53,472L101.93,475Z" style="fill:white;fill-rule:nonzero;"/>
        </g>
    </g>
    <g transform="matrix(1,0,0,1,-10,-10)">
        <g opacity="0.8">
            <path d="M105.29,499L103.75,499L104.23,496.59C104.24,496.55 104.24,496.52 104.24,496.48C104.24,496.21 104.03,496 103.72,496C103.48,496 103.3,496.17 103.25,496.43L102.73,499L100.26,499L100.74,496.59C100.75,496.55 100.75,496.52 100.75,496.48C100.75,496.21 100.54,496 100.23,496C99.99,496 99.81,496.17 99.76,496.43L99.24,499L97.51,499C97.21,499 97,499.21 97,499.5C97,499.79 97.21,500 97.51,500L99.04,500L98.44,503L96.71,503C96.41,503 96.2,503.21 96.2,503.5C96.2,503.79 96.41,504 96.71,504L98.24,504L97.76,506.41C97.75,506.45 97.75,506.48 97.75,506.52C97.75,506.79 97.96,507 98.27,507C98.51,507 98.69,506.83 98.74,506.57L99.26,504L101.73,504L101.25,506.41C101.24,506.45 101.24,506.48 101.24,506.52C101.24,506.79 101.45,507 101.76,507C102,507 102.18,506.83 102.23,506.57L102.75,504L104.48,504C104.78,504 104.99,503.79 104.99,503.5C104.99,503.21 104.78,503 104.48,503L102.95,503L103.55,500L105.29,500C105.59,500 105.8,499.79 105.8,499.5C105.8,499.21 105.59,499 105.29,499ZM101.93,503L99.46,503L100.06,500L102.53,500L101.93,503Z" style="fill:white;fill-rule:nonzero;"/>
        </g>
    </g>
    <g transform="matrix(1,0,0,1,-10,-10)">
        <g opacity="0.8">
            <path d="M285.766,545.6L281.782,545.6L281.782,541.616C281.782,541.144 281.446,540.8 280.982,540.8C280.518,540.8 280.182,541.144 280.182,541.616L280.182,545.6L276.198,545.6C275.726,545.6 275.382,545.936 275.382,546.4C275.382,546.864 275.726,547.2 276.198,547.2L280.182,547.2L280.182,551.184C280.182,551.656 280.518,552 280.982,552C281.446,552 281.782,551.656 281.782,551.184L281.782,547.2L285.766,547.2C286.238,547.2 286.582,546.864 286.582,546.4C286.582,545.936 286.238,545.6 285.766,545.6Z" style="fill:white;fill-rule:nonzero;"/>
        </g>
    </g>
    <g transform="matrix(1,0,0,1,-10,-10)">
        <path d="M101,577.5C103.49,577.5 105.5,575.49 105.5,573C105.5,570.51 103.49,568.5 101,568.5C98.51,568.5 96.5,570.51 96.5,573C96.5,575.49 98.51,577.5 101,577.5Z" style="fill:rgb(43,172,118);fill-rule:nonzero;"/>
    </g>
    <g transform="matrix(1,0,0,1,-10,-10)">
        <path d="M101,605.5C103.49,605.5 105.5,603.49 105.5,601C105.5,598.51 103.49,596.5 101,596.5C98.51,596.5 96.5,598.51 96.5,601C96.5,603.49 98.51,605.5 101,605.5Z" style="fill:rgb(43,172,118);fill-rule:nonzero;"/>
    </g>
    <g transform="matrix(1,0,0,1,-10,-10)">
        <path d="M101,633.5C103.49,633.5 105.5,631.49 105.5,629C105.5,626.51 103.49,624.5 101,624.5C98.51,624.5 96.5,626.51 96.5,629C96.5,631.49 98.51,633.5 101,633.5Z" style="fill:rgb(43,172,118);fill-rule:nonzero;"/>
    </g>
    <g transform="matrix(1.40057,0,0,1,-14.0057,-10)">
        <path d="M10,30C10,18.954 18.954,10 30,10L761,10C772.046,10 781,18.954 781,30L781,53L10,53L10,30Z" style="fill:rgb(43,9,43);fill-rule:nonzero;"/>
    </g>
    <g transform="matrix(1,0,0,1,-10,-10)">
        <path d="M303,21.6C298.527,21.6 294.9,25.227 294.9,29.7C294.9,34.173 298.527,37.8 303,37.8C307.473,37.8 311.1,34.173 311.1,29.7C311.1,25.227 307.473,21.6 303,21.6ZM303,36.45C299.274,36.45 296.25,33.426 296.25,29.7C296.25,25.974 299.274,22.95 303,22.95C306.726,22.95 309.75,25.974 309.75,29.7C309.75,33.426 306.726,36.45 303,36.45ZM306.375,29.25L303.45,29.25L303.45,25.875C303.45,25.506 303.144,25.2 302.775,25.2C302.397,25.2 302.1,25.506 302.1,25.875L302.1,29.925C302.1,30.294 302.397,30.6 302.775,30.6L306.375,30.6C306.744,30.6 307.05,30.294 307.05,29.925C307.05,29.547 306.744,29.25 306.375,29.25Z" style="fill:white;fill-opacity:0.8;fill-rule:nonzero;"/>
    </g>
    <g transform="matrix(1,0,0,1,16,-10)">
        <path d="M713,24C713,20.689 710.311,18 707,18L343,18C339.689,18 337,20.689 337,24L337,36C337,39.311 339.689,42 343,42L707,42C710.311,42 713,39.311 713,36L713,24Z" style="fill:rgb(57,19,62);"/>
        <path d="M712.5,24C712.5,20.964 710.036,18.5 707,18.5L343,18.5C339.964,18.5 337.5,20.964 337.5,24L337.5,36C337.5,39.036 339.964,41.5 343,41.5L707,41.5C710.036,41.5 712.5,39.036 712.5,36L712.5,24Z" style="fill:none;stroke:rgb(77,43,82);stroke-width:1px;"/>
    </g>
    <g transform="matrix(1,0,0,1,-10,-10)">
        <g opacity="0.4">
            <path d="M269.78,29.47L264.28,23.97C264.14,23.83 263.94,23.75 263.75,23.75C263.56,23.75 263.37,23.83 263.22,23.97C263.07,24.11 263,24.31 263,24.5C263,24.69 263.08,24.89 263.22,25.03L267.44,29.25L256.75,29.25C256.34,29.25 256,29.59 256,30C256,30.42 256.34,30.75 256.75,30.75L267.44,30.75L263.22,34.97C263.07,35.12 263,35.31 263,35.5C263,35.69 263.08,35.89 263.22,36.03C263.37,36.18 263.56,36.25 263.75,36.25C263.94,36.25 264.14,36.18 264.28,36.03L269.78,30.53C269.92,30.38 270,30.19 270,30C270,29.81 269.93,29.62 269.78,29.47Z" style="fill:white;fill-rule:nonzero;"/>
        </g>
    </g>
    <g transform="matrix(1,0,0,1,-10,-10)">
        <path d="M220.22,30.53L225.72,36.03C225.86,36.17 226.06,36.25 226.25,36.25C226.44,36.25 226.63,36.17 226.78,36.03C226.93,35.89 227,35.69 227,35.5C227,35.31 226.92,35.11 226.78,34.97L222.56,30.75L233.25,30.75C233.66,30.75 234,30.41 234,30C234,29.58 233.66,29.25 233.25,29.25L222.56,29.25L226.78,25.03C226.93,24.88 227,24.69 227,24.5C227,24.31 226.92,24.11 226.78,23.97C226.63,23.82 226.44,23.75 226.25,23.75C226.06,23.75 225.86,23.82 225.72,23.97L220.22,29.47C220.08,29.62 220,29.81 220,30C220,30.19 220.07,30.38 220.22,30.53Z" style="fill:white;fill-opacity:0.8;fill-rule:nonzero;"/>
    </g>
    <g transform="matrix(1,0,0,1,-10,-10)">
        <path d="M26,36C29.314,36 32,33.314 32,30C32,26.686 29.314,24 26,24C22.686,24 20,26.686 20,30C20,33.314 22.686,36 26,36Z" style="fill:rgb(255,96,89);"/>
    </g>
    <g transform="matrix(1,0,0,1,-10,-10)">
        <path d="M46,36C49.314,36 52,33.314 52,30C52,26.686 49.314,24 46,24C42.686,24 40,26.686 40,30C40,33.314 42.686,36 46,36Z" style="fill:rgb(255,190,47);"/>
    </g>
    <g transform="matrix(1,0,0,1,-10,-10)">
        <path d="M66,36C69.314,36 72,33.314 72,30C72,26.686 69.314,24 66,24C62.686,24 60,26.686 60,30C60,33.314 62.686,36 66,36Z" style="fill:rgb(42,202,65);"/>
    </g>
    <g transform="matrix(1,0,0,1,16,-10)">
        <path d="M601,30C601,26.689 598.311,24 595,24L482,24C478.689,24 476,26.689 476,30C476,33.311 478.689,36 482,36L595,36C598.311,36 601,33.311 601,30Z" style="fill:white;fill-opacity:0.2;"/>
    </g>
    <g transform="matrix(1,0,0,1,16,-10)">
        <path d="M464.859,34.155L462.429,31.734C463.104,30.861 463.5,29.763 463.5,28.575C463.5,25.713 461.187,23.4 458.325,23.4C455.472,23.4 453.15,25.722 453.15,28.575C453.15,31.428 455.472,33.75 458.325,33.75C459.513,33.75 460.602,33.354 461.475,32.688L463.905,35.109C464.049,35.253 464.22,35.325 464.391,35.325C464.562,35.325 464.733,35.253 464.868,35.118C465.012,34.974 465.075,34.812 465.075,34.641C465.075,34.47 465.003,34.299 464.859,34.155ZM454.5,28.575C454.5,26.46 456.219,24.75 458.325,24.75C460.44,24.75 462.15,26.46 462.15,28.575C462.15,30.69 460.44,32.4 458.325,32.4C456.219,32.4 454.5,30.69 454.5,28.575Z" style="fill:white;fill-opacity:0.3;fill-rule:nonzero;"/>
    </g>
    <g transform="matrix(1.74279,0,0,1,-254.378,-10)">
        <path d="M753,609C753,606.792 751.972,605 750.705,605L331.295,605C330.028,605 329,606.792 329,609L329,686C329,688.208 330.028,690 331.295,690L750.705,690C751.972,690 753,688.208 753,686L753,609Z" style="fill:white;"/>
    </g>
    <g transform="matrix(1.75129,0,0,1,-257.549,-10)">
        <path d="M752.5,609C752.5,607.068 751.604,605.5 750.501,605.5L331.499,605.5C330.396,605.5 329.5,607.068 329.5,609L329.5,686C329.5,687.932 330.396,689.5 331.499,689.5L750.501,689.5C751.604,689.5 752.5,687.932 752.5,686L752.5,609Z" style="fill:none;stroke:rgb(29,28,29);stroke-opacity:0.7;stroke-width:1px;"/>
    </g>
    <g transform="matrix(1.74678,0,0,1,-255.691,-10)">
        <path d="M329,649L753,649L753,686C753,688.209 751.209,690 749,690L333,690C330.791,690 329,688.209 329,686L329,649Z" style="fill:rgb(29,28,29);fill-opacity:0.04;fill-rule:nonzero;"/>
    </g>
    <g transform="matrix(1,0,0,1,-10,-10)">
        <path d="M349.344,676.6C349.72,676.6 350.176,676.472 350.64,676.024L357.832,669.224C358.36,668.72 358.64,668.216 358.64,667.792C358.64,667.096 357.976,666.6 356.808,666.6L355.12,666.6L357.976,662.2L350.744,662.2L347.328,668.952C347.184,669.232 347.12,669.512 347.12,669.776C347.12,670.664 347.824,671.4 348.848,671.4L350.12,671.4L348.456,674.464C348.312,674.816 348.24,675.136 348.24,675.408C348.24,676.152 348.712,676.6 349.344,676.6ZM349.536,675.312C349.424,675.312 349.48,675.12 349.56,674.936L351.92,670.2L348.848,670.2C348.52,670.2 348.328,670.024 348.328,669.776C348.328,669.688 348.344,669.592 348.4,669.488L351.488,663.4L355.744,663.4L353.008,667.8L356.808,667.8C357.08,667.8 357.216,667.888 357.216,668.016C357.216,668.104 357.152,668.208 357.024,668.336L349.84,675.136C349.712,675.264 349.6,675.312 349.536,675.312Z" style="fill:rgb(29,28,29);fill-opacity:0.7;fill-rule:nonzero;"/>
    </g>
    <g transform="matrix(1,0,0,1,-10,-10)">
        <path d="M392.312,669.008C393.008,668.48 393.4,667.72 393.4,666.8C393.4,665.144 392.056,663.8 390.4,663.8L385.6,663.8C385.272,663.8 385,664.072 385,664.4L385,674.4C385,674.728 385.272,675 385.6,675L391,675C392.768,675 394.2,673.568 394.2,671.8C394.2,670.52 393.496,669.528 392.312,669.008ZM389.2,665C390.192,665 391,665.808 391,666.8C391,667.792 390.192,668.6 389.2,668.6L387.392,668.6L387.392,665L389.2,665ZM389.8,673.8L387.4,673.8L387.4,669.8L389.8,669.8C390.904,669.8 391.8,670.696 391.8,671.8C391.8,672.904 390.904,673.8 389.8,673.8Z" style="fill:rgb(29,28,29);fill-opacity:0.7;fill-rule:nonzero;"/>
    </g>
    <g transform="matrix(1,0,0,1,-10,-10)">
        <path d="M425.4,663.8L421,663.8C420.672,663.8 420.4,664.072 420.4,664.4C420.4,664.728 420.672,665 421,665L422.304,665L420.104,673.8L418.6,673.8C418.272,673.8 418,674.072 418,674.4C418,674.728 418.272,675 418.6,675L423,675C423.328,675 423.6,674.728 423.6,674.4C423.6,674.072 423.328,673.8 423,673.8L421.704,673.8L423.904,665L425.4,665C425.728,665 426,664.728 426,664.4C426,664.072 425.728,663.8 425.4,663.8Z" style="fill:rgb(29,28,29);fill-opacity:0.7;fill-rule:nonzero;"/>
    </g>
    <g transform="matrix(1,0,0,1,-10,-10)">
        <path d="M461.8,669L455.296,669C453.72,668.504 452.68,667.616 452.68,666.68C452.68,665.6 453.704,664.76 455.16,664.76C456.784,664.76 457.928,665.568 457.928,666.6C457.928,666.928 458.2,667.2 458.528,667.2C458.856,667.2 459.128,666.928 459.128,666.6C459.128,664.864 457.488,663.64 455.16,663.64C452.96,663.64 451.4,664.896 451.4,666.68C451.4,667.592 451.952,668.432 452.84,669L448.2,669C447.872,669 447.6,669.272 447.6,669.6C447.6,669.928 447.872,670.2 448.2,670.2L461.8,670.2C462.128,670.2 462.4,669.928 462.4,669.6C462.4,669.272 462.128,669 461.8,669ZM457.512,671.4C457.592,671.632 457.64,671.896 457.64,672.12C457.64,673.2 456.616,674.04 455.16,674.04C453.536,674.04 452.384,673.232 452.384,672.2C452.384,671.872 452.112,671.6 451.784,671.6C451.456,671.6 451.184,671.872 451.184,672.2C451.184,673.936 452.832,675.16 455.16,675.16C457.36,675.16 458.92,673.904 458.92,672.12C458.92,671.896 458.888,671.632 458.84,671.4L457.512,671.4Z" style="fill:rgb(29,28,29);fill-opacity:0.7;fill-rule:nonzero;"/>
    </g>
    <g transform="matrix(1,0,0,1,-10,-10)">
        <path d="M488.992,664.6C488.728,664.6 488.488,664.784 488.424,665.048L486.424,673.44C486.408,673.496 486.4,673.544 486.4,673.6C486.4,673.912 486.656,674.2 487.008,674.2C487.272,674.2 487.52,674.016 487.584,673.752L489.584,665.36C489.592,665.312 489.6,665.264 489.6,665.216C489.6,664.896 489.352,664.6 488.992,664.6ZM483.8,666.6C483.632,666.6 483.488,666.68 483.368,666.784L480.992,668.96C480.872,669.072 480.8,669.224 480.8,669.4C480.8,669.576 480.872,669.728 480.992,669.84L483.376,672.024C483.496,672.128 483.64,672.2 483.8,672.2C484.128,672.2 484.4,671.928 484.4,671.6C484.4,671.44 484.344,671.28 484.224,671.176L482.2,669.4L484.216,667.632C484.336,667.528 484.4,667.368 484.4,667.2C484.4,666.872 484.128,666.6 483.8,666.6ZM492.2,666.6C491.872,666.6 491.6,666.872 491.6,667.2C491.6,667.368 491.664,667.528 491.784,667.632L493.8,669.4L491.776,671.176C491.656,671.28 491.6,671.44 491.6,671.6C491.6,671.928 491.872,672.2 492.2,672.2C492.36,672.2 492.504,672.128 492.624,672.024L495.008,669.84C495.128,669.728 495.2,669.576 495.2,669.4C495.2,669.224 495.128,669.072 495.008,668.96L492.632,666.784C492.512,666.68 492.368,666.6 492.2,666.6Z" style="fill:rgb(29,28,29);fill-opacity:0.7;fill-rule:nonzero;"/>
    </g>
    <g transform="matrix(1,0,0,1,-10,-10)">
        <path d="M517.2,667.72L516.44,667.72L516.44,664.48C516.44,664.4 516.424,664.328 516.384,664.264C516.304,664.128 516.16,664.048 515.992,664.048C515.912,664.048 515.84,664.064 515.776,664.104L514.384,664.904C514.256,664.976 514.168,665.128 514.16,665.296C514.152,665.504 514.344,665.752 514.608,665.72C514.68,665.712 514.736,665.712 514.84,665.656L515.56,665.248L515.56,667.72L514.8,667.72C514.56,667.72 514.36,667.92 514.36,668.16C514.36,668.4 514.56,668.6 514.8,668.6L517.2,668.6C517.44,668.6 517.64,668.4 517.64,668.16C517.64,667.92 517.44,667.72 517.2,667.72ZM520.4,666.2L528,666.2C528.328,666.2 528.6,665.928 528.6,665.6C528.6,665.272 528.328,665 528,665L520.4,665C520.072,665 519.8,665.272 519.8,665.6C519.8,665.928 520.072,666.2 520.4,666.2ZM528,669L520.4,669C520.072,669 519.8,669.272 519.8,669.6C519.8,669.928 520.072,670.2 520.4,670.2L528,670.2C528.328,670.2 528.6,669.928 528.6,669.6C528.6,669.272 528.328,669 528,669ZM517.2,674.12L516.824,674.12C516.44,674.12 516.216,674.152 515.808,674.224L515.792,674.16C515.88,674.104 516.336,673.696 516.52,673.512C517.16,672.872 517.56,672.504 517.56,671.84C517.56,671.088 516.896,670.52 516,670.52C515.248,670.52 514.704,670.952 514.432,671.632C514.416,671.672 514.408,671.712 514.408,671.768C514.408,672.016 514.608,672.208 514.848,672.208C515.032,672.208 515.2,672.088 515.264,671.912C515.376,671.592 515.648,671.4 516,671.4C516.344,671.4 516.6,671.64 516.6,671.96C516.6,672.448 515.68,673.136 515.152,673.632L514.496,674.24C514.4,674.336 514.36,674.44 514.36,674.56C514.36,674.8 514.56,675 514.8,675L517.2,675C517.44,675 517.64,674.8 517.64,674.56C517.64,674.32 517.44,674.12 517.2,674.12ZM528,673L520.4,673C520.072,673 519.8,673.272 519.8,673.6C519.8,673.928 520.072,674.2 520.4,674.2L528,674.2C528.328,674.2 528.6,673.928 528.6,673.6C528.6,673.272 528.328,673 528,673Z" style="fill:rgb(29,28,29);fill-opacity:0.7;fill-rule:nonzero;"/>
    </g>
    <g transform="matrix(1,0,0,1,173,-10)">
        <path d="M730.2,662.2C728.208,662.2 726.6,663.808 726.6,665.8L726.6,671.8C726.6,673.128 727.672,674.2 729,674.2C730.328,674.2 731.4,673.128 731.4,671.8L731.4,666.4C731.4,666.064 731.136,665.8 730.8,665.8C730.472,665.8 730.2,666.064 730.2,666.4L730.2,671.8C730.2,672.464 729.664,673 729,673C728.336,673 727.8,672.464 727.8,671.8L727.8,665.8C727.8,664.472 728.872,663.4 730.2,663.4C731.528,663.4 732.6,664.472 732.6,665.8L732.6,671.8C732.6,673.792 730.992,675.4 729,675.4C727.008,675.4 725.4,673.792 725.4,671.8L725.4,667.2C725.4,666.864 725.136,666.6 724.8,666.6C724.472,666.6 724.2,666.864 724.2,667.2L724.2,671.8C724.2,674.448 726.352,676.6 729,676.6C731.648,676.6 733.8,674.448 733.8,671.8L733.8,665.8C733.8,663.808 732.192,662.2 730.2,662.2Z" style="fill:rgb(29,28,29);fill-opacity:0.7;fill-rule:nonzero;"/>
    </g>
    <g transform="matrix(1,0,0,1,173,-10)">
        <path d="M625.624,664.584L622,675L623.304,675L624.304,672.016L628.752,672.016L629.744,675L631.048,675L627.456,664.584C627.112,663.592 625.968,663.6 625.624,664.584ZM624.656,670.976L626.488,665.504C626.504,665.448 626.568,665.448 626.584,665.504L628.408,670.976L624.656,670.976ZM634.728,666.104C632.744,666.096 631.416,667.152 631.416,668.752L632.624,668.752C632.624,667.896 633.464,667.32 634.728,667.32C635.968,667.32 636.8,667.896 636.8,668.768L636.8,670.2L634.032,670.2C632.352,670.2 631.232,671.192 631.232,672.672C631.232,674.16 632.352,675.152 634.032,675.152C635.08,675.152 636.128,674.656 636.8,673.856L636.8,675L638,675L638,668.752C638,667.168 636.688,666.112 634.728,666.104ZM634.032,674.032C633.072,674.032 632.432,673.488 632.432,672.672C632.432,671.864 633.072,671.32 634.032,671.32L636.8,671.32L636.8,672.328C635.968,673.544 634.864,674.032 634.032,674.032Z" style="fill:rgb(29,28,29);fill-opacity:0.7;fill-rule:nonzero;"/>
    </g>
    <g transform="matrix(1,0,0,1,173,-10)">
        <path d="M663,662.2C659.024,662.2 655.8,665.424 655.8,669.4C655.8,673.376 659.024,676.6 663,676.6C664.256,676.6 665.432,676.28 666.464,675.712L666.488,675.696C666.68,675.592 666.808,675.392 666.808,675.168C666.808,674.84 666.536,674.568 666.208,674.568C666.104,674.568 666,674.6 665.912,674.648C665.048,675.128 664.056,675.4 663,675.4C659.688,675.4 657,672.712 657,669.4C657,666.088 659.688,663.4 663,663.4C666.312,663.4 669,666.088 669,669.4C669,670.744 668.536,671.4 667.6,671.4C666.824,671.4 666.2,670.776 666.2,670L666.2,666.8C666.2,666.472 665.928,666.2 665.6,666.2C665.272,666.2 665,666.472 665,666.8L665,666.904C664.456,666.464 663.76,666.2 663,666.2C661.232,666.2 659.8,667.632 659.8,669.4C659.8,671.168 661.232,672.6 663,672.6C663.984,672.6 664.864,672.16 665.448,671.456C665.92,672.144 666.712,672.6 667.6,672.6C669.24,672.6 670.2,671.392 670.2,669.4C670.2,665.424 666.976,662.2 663,662.2ZM663,671.4C661.896,671.4 661,670.504 661,669.4C661,668.296 661.896,667.4 663,667.4C664.104,667.4 665,668.296 665,669.4C665,670.504 664.104,671.4 663,671.4Z" style="fill:rgb(29,28,29);fill-opacity:0.7;fill-rule:nonzero;"/>
    </g>
    <g transform="matrix(1,0,0,1,173,-10)">
        <path d="M696,662.2C692.024,662.2 688.8,665.424 688.8,669.4C688.8,673.376 692.024,676.6 696,676.6C699.976,676.6 703.2,673.376 703.2,669.4C703.2,665.424 699.976,662.2 696,662.2ZM696,663.4C699.312,663.4 702,666.088 702,669.4C702,672.712 699.312,675.4 696,675.4C692.688,675.4 690,672.712 690,669.4C690,666.088 692.688,663.4 696,663.4ZM694,666.6C693.336,666.6 692.8,667.136 692.8,667.8C692.8,668.464 693.336,669 694,669C694.664,669 695.2,668.464 695.2,667.8C695.2,667.136 694.664,666.6 694,666.6ZM698,666.6C697.336,666.6 696.8,667.136 696.8,667.8C696.8,668.464 697.336,669 698,669C698.664,669 699.2,668.464 699.2,667.8C699.2,667.136 698.664,666.6 698,666.6ZM699,669.96C698.728,669.96 698.488,670.144 698.424,670.416C698.208,671.336 696.984,671.96 696,671.96C694.936,671.96 693.8,671.336 693.576,670.408C693.512,670.144 693.272,669.96 693,669.96C692.648,669.96 692.4,670.24 692.4,670.56C692.4,671.56 693.704,673.16 696,673.16C698.336,673.16 699.6,671.488 699.6,670.56C699.6,670.24 699.352,669.96 699,669.96Z" style="fill:rgb(29,28,29);fill-opacity:0.7;fill-rule:nonzero;"/>
    </g>
    <g transform="matrix(1,0,0,1,-10,-10)">
        <g opacity="0.8">
            <path d="M95,191.6C90.527,191.6 86.9,195.227 86.9,199.7C86.9,204.173 90.527,207.8 95,207.8C96.413,207.8 97.736,207.44 98.897,206.801L98.924,206.783C99.14,206.666 99.284,206.441 99.284,206.189C99.284,205.82 98.978,205.514 98.609,205.514C98.492,205.514 98.375,205.55 98.276,205.604C97.304,206.144 96.188,206.45 95,206.45C91.274,206.45 88.25,203.426 88.25,199.7C88.25,195.974 91.274,192.95 95,192.95C98.726,192.95 101.75,195.974 101.75,199.7C101.75,201.212 101.228,201.95 100.175,201.95C99.302,201.95 98.6,201.248 98.6,200.375L98.6,196.775C98.6,196.406 98.294,196.1 97.925,196.1C97.556,196.1 97.25,196.406 97.25,196.775L97.25,196.892C96.638,196.397 95.855,196.1 95,196.1C93.011,196.1 91.4,197.711 91.4,199.7C91.4,201.689 93.011,203.3 95,203.3C96.107,203.3 97.097,202.805 97.754,202.013C98.285,202.787 99.176,203.3 100.175,203.3C102.02,203.3 103.1,201.941 103.1,199.7C103.1,195.227 99.473,191.6 95,191.6ZM95,201.95C93.758,201.95 92.75,200.942 92.75,199.7C92.75,198.458 93.758,197.45 95,197.45C96.242,197.45 97.25,198.458 97.25,199.7C97.25,200.942 96.242,201.95 95,201.95Z" style="fill:white;fill-rule:nonzero;"/>
        </g>
    </g>
    <g transform="matrix(1,0,0,1,-10,-10)">
        <g opacity="0.8">
            <path d="M101.426,180.251C102.191,180.503 102.803,179.891 102.551,179.126L101.57,176.12C101.507,175.94 101.525,175.76 101.597,175.58C101.984,174.698 102.2,173.726 102.2,172.7C102.2,168.722 98.978,165.5 95,165.5C91.022,165.5 87.8,168.722 87.8,172.7C87.8,176.678 91.022,179.9 95,179.9C96.026,179.9 96.998,179.684 97.88,179.297C98.06,179.225 98.24,179.207 98.42,179.27L101.426,180.251ZM100.985,178.685L98.474,177.866C98.177,177.767 97.88,177.803 97.601,177.947C96.8,178.343 95.945,178.55 95,178.55C91.778,178.55 89.15,175.922 89.15,172.7C89.15,169.478 91.778,166.85 95,166.85C98.222,166.85 100.85,169.478 100.85,172.7C100.85,173.645 100.643,174.5 100.247,175.301C100.103,175.58 100.067,175.877 100.166,176.174L100.985,178.685ZM97.367,170.9L92.642,170.9C92.147,170.9 91.85,171.152 91.85,171.575C91.85,171.998 92.147,172.25 92.642,172.25L97.367,172.25C97.862,172.25 98.15,171.998 98.15,171.575C98.15,171.152 97.862,170.9 97.367,170.9ZM96.467,173.6L92.642,173.6C92.147,173.6 91.85,173.852 91.85,174.275C91.85,174.698 92.147,174.95 92.642,174.95L96.467,174.95C96.962,174.95 97.25,174.698 97.25,174.275C97.25,173.852 96.962,173.6 96.467,173.6Z" style="fill:white;fill-rule:nonzero;"/>
        </g>
    </g>
    <g transform="matrix(1,0,0,1,-10,-10)">
        <path d="M70,257.5L330,257.5" style="fill:none;fill-rule:nonzero;stroke:white;stroke-opacity:0.1;stroke-width:1px;"/>
    </g>
    <g transform="matrix(1,0,0,1,-10,-10)">
        <path d="M101.25,139L90.75,139C90.34,139 90,139.34 90,139.75C90,140.16 90.34,140.5 90.75,140.5L101.25,140.5C101.66,140.5 102,140.16 102,139.75C102,139.34 101.66,139 101.25,139ZM101.25,143L90.75,143C90.34,143 90,143.34 90,143.75C90,144.16 90.34,144.5 90.75,144.5L101.25,144.5C101.66,144.5 102,144.16 102,143.75C102,143.34 101.66,143 101.25,143ZM97.25,147L90.75,147C90.34,147 90,147.34 90,147.75C90,148.16 90.34,148.5 90.75,148.5L97.25,148.5C97.66,148.5 98,148.16 98,147.75C98,147.34 97.66,147 97.25,147Z" style="fill:white;fill-rule:nonzero;"/>
    </g>
    <g transform="matrix(1,0,0,1,-10,-10)">
        <g opacity="0.8">
            <path d="M91,230C91,230.19 91.07,230.38 91.22,230.53L94.47,233.78C94.62,233.93 94.81,234 95,234C95.19,234 95.38,233.93 95.53,233.78L98.78,230.53C98.93,230.38 99,230.19 99,230C99,229.81 98.93,229.62 98.78,229.47C98.63,229.32 98.44,229.25 98.25,229.25C98.06,229.25 97.87,229.32 97.72,229.47L95.75,231.44L95.75,224.75C95.75,224.34 95.41,224 95,224C94.58,224 94.25,224.34 94.25,224.75L94.25,231.44L92.28,229.47C92.13,229.32 91.94,229.25 91.75,229.25C91.56,229.25 91.37,229.32 91.22,229.47C91.07,229.62 91,229.81 91,230Z" style="fill:white;fill-rule:nonzero;"/>
        </g>
    </g>
    <g transform="matrix(1,0,0,1,-10,-10)">
        <path d="M200,143.5C200,140.464 197.536,138 194.5,138L118.5,138C115.464,138 113,140.464 113,143.5C113,146.536 115.464,149 118.5,149L194.5,149C197.536,149 200,146.536 200,143.5Z" style="fill:white;"/>
    </g>
    <g transform="matrix(1,0,0,1,-10,-10)">
        <path d="M200,172.5C200,169.464 197.536,167 194.5,167L118.5,167C115.464,167 113,169.464 113,172.5C113,175.536 115.464,178 118.5,178L194.5,178C197.536,178 200,175.536 200,172.5Z" style="fill:white;fill-opacity:0.5;"/>
    </g>
    <g transform="matrix(1,0,0,1,-10,-10)">
        <path d="M252,200.5C252,197.464 249.536,195 246.5,195L118.5,195C115.464,195 113,197.464 113,200.5C113,203.536 115.464,206 118.5,206L246.5,206C249.536,206 252,203.536 252,200.5Z" style="fill:white;fill-opacity:0.5;"/>
    </g>
    <g transform="matrix(1,0,0,1,-10,-10)">
        <path d="M187,228.5C187,225.464 184.536,223 181.5,223L119.5,223C116.464,223 114,225.464 114,228.5C114,231.536 116.464,234 119.5,234L181.5,234C184.536,234 187,231.536 187,228.5Z" style="fill:white;fill-opacity:0.5;"/>
    </g>
    <g transform="matrix(1,0,0,1,-10,-10)">
        <path d="M113,317.5C113,314.462 115.462,312 118.5,312L199.5,312C202.538,312 205,314.462 205,317.5C205,320.538 202.538,323 199.5,323L118.5,323C115.462,323 113,320.538 113,317.5Z" style="fill:white;fill-rule:nonzero;"/>
    </g>
    <g transform="matrix(1,0,0,1,-10,-10)">
        <path d="M113,417.5C113,414.462 115.462,412 118.5,412L199.5,412C202.538,412 205,414.462 205,417.5C205,420.538 202.538,423 199.5,423L118.5,423C115.462,423 113,420.538 113,417.5Z" style="fill:white;fill-rule:nonzero;"/>
    </g>
    <g transform="matrix(1,0,0,1,-10,-10)">
        <path d="M113,445.5C113,442.462 115.462,440 118.5,440L223.5,440C226.538,440 229,442.462 229,445.5C229,448.538 226.538,451 223.5,451L118.5,451C115.462,451 113,448.538 113,445.5Z" style="fill:white;fill-rule:nonzero;"/>
    </g>
    <g transform="matrix(1,0,0,1,-10,-10)">
        <path d="M113,473.5C113,470.462 115.462,468 118.5,468L194.5,468C197.538,468 200,470.462 200,473.5C200,476.538 197.538,479 194.5,479L118.5,479C115.462,479 113,476.538 113,473.5Z" style="fill:white;fill-rule:nonzero;"/>
    </g>
    <g transform="matrix(1,0,0,1,-10,-10)">
        <path d="M113,500.5C113,497.462 115.462,495 118.5,495L169.5,495C172.538,495 175,497.462 175,500.5C175,503.538 172.538,506 169.5,506L118.5,506C115.462,506 113,503.538 113,500.5Z" style="fill:white;fill-opacity:0.5;fill-rule:nonzero;"/>
    </g>
    <g transform="matrix(1,0,0,1,-10,-10)">
        <path d="M113,572.5C113,569.462 115.462,567 118.5,567L230.5,567C233.538,567 236,569.462 236,572.5C236,575.538 233.538,578 230.5,578L118.5,578C115.462,578 113,575.538 113,572.5Z" style="fill:white;fill-opacity:0.5;fill-rule:nonzero;"/>
    </g>
    <g transform="matrix(1,0,0,1,-10,-10)">
        <path d="M113,600.5C113,597.462 115.462,595 118.5,595L203.5,595C206.538,595 209,597.462 209,600.5C209,603.538 206.538,606 203.5,606L118.5,606C115.462,606 113,603.538 113,600.5Z" style="fill:white;fill-opacity:0.5;fill-rule:nonzero;"/>
    </g>
    <g transform="matrix(1,0,0,1,-10,-10)">
        <path d="M113,628.5C113,625.462 115.462,623 118.5,623L180.5,623C183.538,623 186,625.462 186,628.5C186,631.538 183.538,634 180.5,634L118.5,634C115.462,634 113,631.538 113,628.5Z" style="fill:white;fill-opacity:0.5;fill-rule:nonzero;"/>
    </g>
    <g transform="matrix(1,0,0,1,-10,-10)">
        <path d="M92,289.5C92,286.462 94.462,284 97.5,284L189.5,284C192.538,284 195,286.462 195,289.5C195,292.538 192.538,295 189.5,295L97.5,295C94.462,295 92,292.538 92,289.5Z" style="fill:white;fill-opacity:0.7;fill-rule:nonzero;"/>
    </g>
    <g transform="matrix(1,0,0,1,-10,-10)">
        <path d="M92,389.5C92,386.462 94.462,384 97.5,384L210.5,384C213.538,384 216,386.462 216,389.5C216,392.538 213.538,395 210.5,395L97.5,395C94.462,395 92,392.538 92,389.5Z" style="fill:white;fill-opacity:0.8;fill-rule:nonzero;"/>
    </g>
    <g transform="matrix(1,0,0,1,-10,-10)">
        <path d="M93,545.5C93,542.462 95.462,540 98.5,540L225.5,540C228.538,540 231,542.462 231,545.5C231,548.538 228.538,551 225.5,551L98.5,551C95.462,551 93,548.538 93,545.5Z" style="fill:white;fill-opacity:0.7;fill-rule:nonzero;"/>
    </g>
    <g transform="matrix(1,0,0,1,-10,-10)">
        <path d="M113,346.5C113,343.462 115.462,341 118.5,341L233.5,341C236.538,341 239,343.462 239,346.5C239,349.538 236.538,352 233.5,352L118.5,352C115.462,352 113,349.538 113,346.5Z" style="fill:white;fill-opacity:0.5;fill-rule:nonzero;"/>
    </g>
    <g transform="matrix(1,0,0,1,-10,-10)">
        <path d="M155,70.5C155,67.464 152.536,65 149.5,65L91.5,65C88.464,65 86,67.464 86,70.5C86,73.536 88.464,76 91.5,76L149.5,76C152.536,76 155,73.536 155,70.5Z" style="fill:white;"/>
    </g>
    <g transform="matrix(1,0,0,1,-10,-10)">
        <path d="M198,93.5C198,91.016 195.984,89 193.5,89L105.5,89C103.016,89 101,91.016 101,93.5C101,95.984 103.016,98 105.5,98L193.5,98C195.984,98 198,95.984 198,93.5Z" style="fill:white;fill-opacity:0.5;"/>
    </g>
    <g transform="matrix(1,0,0,1,-10,-10)">
        <path d="M415,237C415,230.377 409.623,225 403,225L387,225C380.377,225 375,230.377 375,237C375,243.623 380.377,249 387,249L403,249C409.623,249 415,243.623 415,237Z" style="fill:rgb(196,196,196);fill-opacity:0.3;"/>
    </g>
    <g transform="matrix(1,0,0,1,-10,-10)">
        <path d="M463,237C463,230.377 457.623,225 451,225L435,225C428.377,225 423,230.377 423,237C423,243.623 428.377,249 435,249L451,249C457.623,249 463,243.623 463,237Z" style="fill:rgb(196,196,196);fill-opacity:0.3;"/>
    </g>
    <g transform="matrix(1,0,0,1,-10,-10)">
        <path d="M511,237C511,230.377 505.623,225 499,225L483,225C476.377,225 471,230.377 471,237C471,243.623 476.377,249 483,249L499,249C505.623,249 511,243.623 511,237Z" style="fill:rgb(196,196,196);fill-opacity:0.3;"/>
    </g>
    <g transform="matrix(1,0,0,1,-10,-10)">
        <path d="M559,237C559,230.377 553.623,225 547,225L531,225C524.377,225 519,230.377 519,237C519,243.623 524.377,249 531,249L547,249C553.623,249 559,243.623 559,237Z" style="fill:rgb(196,196,196);fill-opacity:0.3;"/>
    </g>
    <g transform="matrix(1,0,0,1,-10,-10)">
        <path d="M366,137C366,134.792 364.208,133 362,133L334,133C331.792,133 330,134.792 330,137L330,165C330,167.208 331.792,169 334,169L362,169C364.208,169 366,167.208 366,165L366,137Z" style="fill:rgb(235,234,235);"/>
    </g>
    <g transform="matrix(1,0,0,1,-10,-10)">
        <path d="M366,137C366,134.792 364.208,133 362,133L334,133C331.792,133 330,134.792 330,137L330,165C330,167.208 331.792,169 334,169L362,169C364.208,169 366,167.208 366,165L366,137Z" style="fill:rgb(255,144,78);"/>
    </g>
    <g transform="matrix(1.76974,0,0,1,-299.422,-10)">
        <path d="M674,163.5C674,160.464 672.607,158 670.892,158L379.108,158C377.393,158 376,160.464 376,163.5C376,166.536 377.393,169 379.108,169L670.892,169C672.607,169 674,166.536 674,163.5Z" style="fill:rgb(196,196,196);fill-opacity:0.7;"/>
    </g>
    <g transform="matrix(1.77077,0,0,1,-299.811,-10)">
        <path d="M674,184.5C674,181.464 672.608,179 670.894,179L379.106,179C377.392,179 376,181.464 376,184.5C376,187.536 377.392,190 379.106,190L670.894,190C672.608,190 674,187.536 674,184.5Z" style="fill:rgb(196,196,196);fill-opacity:0.7;"/>
    </g>
    <g transform="matrix(1.73703,0,0,1,-287.121,-10)">
        <path d="M632,205.5C632,202.464 630.581,200 628.834,200L379.166,200C377.419,200 376,202.464 376,205.5C376,208.536 377.419,211 379.166,211L628.834,211C630.581,211 632,208.536 632,205.5Z" style="fill:rgb(196,196,196);fill-opacity:0.7;"/>
    </g>
    <g transform="matrix(1.64568,0,0,1,-252.777,-10)">
        <path d="M674,301.5C674,298.464 672.502,296 670.658,296L379.342,296C377.498,296 376,298.464 376,301.5C376,304.536 377.498,307 379.342,307L670.658,307C672.502,307 674,304.536 674,301.5Z" style="fill:rgb(196,196,196);fill-opacity:0.7;"/>
    </g>
    <g transform="matrix(2.57386,0,0,1,-601.773,-10)">
        <path d="M514,322.5C514,319.464 513.043,317 511.863,317L378.137,317C376.957,317 376,319.464 376,322.5C376,325.536 376.957,328 378.137,328L511.863,328C513.043,328 514,325.536 514,322.5Z" style="fill:rgb(196,196,196);fill-opacity:0.7;"/>
    </g>
    <g transform="matrix(1,0,0,1,-10,-10)">
        <path d="M469,140C469,136.689 466.311,134 463,134L382,134C378.689,134 376,136.689 376,140C376,143.311 378.689,146 382,146L463,146C466.311,146 469,143.311 469,140Z" style="fill:rgb(134,134,134);fill-opacity:0.9;"/>
    </g>
    <g transform="matrix(1,0,0,1,-10,-10)">
        <path d="M366,281C366,278.792 364.208,277 362,277L334,277C331.792,277 330,278.792 330,281L330,309C330,311.208 331.792,313 334,313L362,313C364.208,313 366,311.208 366,309L366,281Z" style="fill:rgb(31,208,155);"/>
    </g>
    <g transform="matrix(1,0,0,1,-10,-10)">
        <path d="M499,284C499,280.689 496.311,278 493,278L382,278C378.689,278 376,280.689 376,284C376,287.311 378.689,290 382,290L493,290C496.311,290 499,287.311 499,284Z" style="fill:rgb(134,134,134);fill-opacity:0.9;"/>
    </g>
    <g transform="matrix(3.04538,0,0,1,-779.064,-10)">
        <path d="M559,381.5C559,378.464 558.191,376 557.194,376L377.806,376C376.809,376 376,378.464 376,381.5C376,384.536 376.809,387 377.806,387L557.194,387C558.191,387 559,384.536 559,381.5Z" style="fill:rgb(196,196,196);fill-opacity:0.7;"/>
    </g>
    <g transform="matrix(4.61876,0,0,1,-1374.27,-10)">
        <path d="M496,403.5C496,400.464 495.466,398 494.809,398L378.191,398C377.534,398 377,400.464 377,403.5C377,406.536 377.534,409 378.191,409L494.809,409C495.466,409 496,406.536 496,403.5Z" style="fill:rgb(196,196,196);fill-opacity:0.7;"/>
    </g>
    <g transform="matrix(1,0,0,1,-10,-10)">
        <path d="M496,460.5C496,457.464 493.536,455 490.5,455L382.5,455C379.464,455 377,457.464 377,460.5C377,463.536 379.464,466 382.5,466L490.5,466C493.536,466 496,463.536 496,460.5Z" style="fill:rgb(196,196,196);fill-opacity:0.7;"/>
    </g>
    <g transform="matrix(1,0,0,1,-10,-10)">
        <path d="M460,506.5C460,503.464 457.536,501 454.5,501L382.5,501C379.464,501 377,503.464 377,506.5C377,509.536 379.464,512 382.5,512L454.5,512C457.536,512 460,509.536 460,506.5Z" style="fill:rgb(196,196,196);fill-opacity:0.7;"/>
    </g>
    <g transform="matrix(1,0,0,1,-10,-10)">
        <path d="M715,460.5C715,457.464 712.536,455 709.5,455L564.5,455C561.464,455 559,457.464 559,460.5C559,463.536 561.464,466 564.5,466L709.5,466C712.536,466 715,463.536 715,460.5Z" style="fill:rgb(196,196,196);fill-opacity:0.7;"/>
    </g>
    <g transform="matrix(1,0,0,1,-10,-10)">
        <path d="M496,356C496,353.792 494.208,352 492,352L474,352C471.792,352 470,353.792 470,356L470,360C470,362.208 471.792,364 474,364L492,364C494.208,364 496,362.208 496,360L496,356Z" style="fill:rgb(29,28,29);fill-opacity:0.13;"/>
    </g>
    <g transform="matrix(1,0,0,1,-10,-10)">
        <path d="M480.668,361L479.836,361C479.743,361 479.665,360.977 479.604,360.932C479.545,360.884 479.503,360.825 479.476,360.756L479.044,359.576L476.648,359.576L476.216,360.756C476.195,360.817 476.152,360.873 476.088,360.924C476.027,360.975 475.951,361 475.86,361L475.024,361L477.296,355.216L478.396,355.216L480.668,361ZM476.924,358.816L478.768,358.816L478.064,356.892C478.032,356.807 477.996,356.707 477.956,356.592C477.919,356.475 477.881,356.348 477.844,356.212C477.807,356.348 477.769,356.475 477.732,356.592C477.697,356.709 477.663,356.812 477.628,356.9L476.924,358.816ZM482.456,358.964L482.456,361L481.38,361L481.38,355.216L483.264,355.216C483.65,355.216 483.985,355.261 484.268,355.352C484.55,355.443 484.784,355.569 484.968,355.732C485.152,355.895 485.288,356.089 485.376,356.316C485.464,356.543 485.508,356.791 485.508,357.06C485.508,357.34 485.461,357.597 485.368,357.832C485.274,358.064 485.134,358.264 484.948,358.432C484.761,358.6 484.528,358.731 484.248,358.824C483.968,358.917 483.64,358.964 483.264,358.964L482.456,358.964ZM482.456,358.124L483.264,358.124C483.461,358.124 483.633,358.1 483.78,358.052C483.926,358.001 484.048,357.931 484.144,357.84C484.24,357.747 484.312,357.635 484.36,357.504C484.408,357.371 484.432,357.223 484.432,357.06C484.432,356.905 484.408,356.765 484.36,356.64C484.312,356.515 484.24,356.408 484.144,356.32C484.048,356.232 483.926,356.165 483.78,356.12C483.633,356.072 483.461,356.048 483.264,356.048L482.456,356.048L482.456,358.124ZM487.536,358.964L487.536,361L486.46,361L486.46,355.216L488.344,355.216C488.73,355.216 489.065,355.261 489.348,355.352C489.63,355.443 489.864,355.569 490.048,355.732C490.232,355.895 490.368,356.089 490.456,356.316C490.544,356.543 490.588,356.791 490.588,357.06C490.588,357.34 490.541,357.597 490.448,357.832C490.354,358.064 490.214,358.264 490.028,358.432C489.841,358.6 489.608,358.731 489.328,358.824C489.048,358.917 488.72,358.964 488.344,358.964L487.536,358.964ZM487.536,358.124L488.344,358.124C488.541,358.124 488.713,358.1 488.86,358.052C489.006,358.001 489.128,357.931 489.224,357.84C489.32,357.747 489.392,357.635 489.44,357.504C489.488,357.371 489.512,357.223 489.512,357.06C489.512,356.905 489.488,356.765 489.44,356.64C489.392,356.515 489.32,356.408 489.224,356.32C489.128,356.232 489.006,356.165 488.86,356.12C488.713,356.072 488.541,356.048 488.344,356.048L487.536,356.048L487.536,358.124Z" style="fill:rgb(146,146,146);fill-rule:nonzero;"/>
    </g>
    <g transform="matrix(1,0,0,1,-10,-10)">
        <path d="M366,355C366,352.792 364.208,351 362,351L334,351C331.792,351 330,352.792 330,355L330,383C330,385.208 331.792,387 334,387L362,387C364.208,387 366,385.208 366,383L366,355Z" style="fill:rgb(99,195,236);"/>
    </g>
    <g transform="matrix(1,0,0,1,-10,-10)">
        <path d="M464,358C464,354.689 461.311,352 458,352L383,352C379.689,352 377,354.689 377,358C377,361.311 379.689,364 383,364L458,364C461.311,364 464,361.311 464,358Z" style="fill:rgb(134,134,134);fill-opacity:0.9;"/>
    </g>
    <g transform="matrix(1,0,0,1,-10,-10)">
        <path d="M464,438C464,434.689 461.311,432 458,432L383,432C379.689,432 377,434.689 377,438C377,441.311 379.689,444 383,444L458,444C461.311,444 464,441.311 464,438Z" style="fill:rgb(134,134,134);fill-opacity:0.65;"/>
    </g>
    <g transform="matrix(1,0,0,1,-10,-10)">
        <path d="M481,484C481,480.689 478.311,478 475,478L383,478C379.689,478 377,480.689 377,484C377,487.311 379.689,490 383,490L475,490C478.311,490 481,487.311 481,484Z" style="fill:rgb(134,134,134);fill-opacity:0.65;"/>
    </g>
    <g transform="matrix(1,0,0,1,-10,-10)">
        <path d="M674,438C674,434.689 671.311,432 668,432L565,432C561.689,432 559,434.689 559,438C559,441.311 561.689,444 565,444L668,444C671.311,444 674,441.311 674,438Z" style="fill:rgb(134,134,134);fill-opacity:0.65;"/>
    </g>
    <g transform="matrix(1,0,0,1,-10,-10)">
        <path d="M377,529C377,526.791 378.791,525 381,525L448,525C450.209,525 452,526.791 452,529L452,545C452,547.209 450.209,549 448,549L381,549C378.791,549 377,547.209 377,545L377,529Z" style="fill:white;"/>
    </g>
    <g transform="matrix(1,0,0,1,-10,-10)">
        <path d="M381,525.5L448,525.5C449.933,525.5 451.5,527.067 451.5,529L451.5,545C451.5,546.933 449.933,548.5 448,548.5L381,548.5C379.067,548.5 377.5,546.933 377.5,545L377.5,529C377.5,527.067 379.067,525.5 381,525.5Z" style="fill:none;fill-rule:nonzero;stroke:rgb(52,120,92);stroke-opacity:0.3;stroke-width:1px;"/>
    </g>
    <g transform="matrix(1,0,0,1,-10,-10)">
        <path d="M465,529C465,526.791 466.791,525 469,525L536,525C538.209,525 540,526.791 540,529L540,545C540,547.209 538.209,549 536,549L469,549C466.791,549 465,547.209 465,545L465,529Z" style="fill:white;"/>
    </g>
    <g transform="matrix(1,0,0,1,-10,-10)">
        <path d="M469,525.5L536,525.5C537.933,525.5 539.5,527.067 539.5,529L539.5,545C539.5,546.933 537.933,548.5 536,548.5L469,548.5C467.067,548.5 465.5,546.933 465.5,545L465.5,529C465.5,527.067 467.067,525.5 469,525.5Z" style="fill:none;fill-rule:nonzero;stroke:rgb(206,55,92);stroke-opacity:0.3;stroke-width:1px;"/>
    </g>
    <g transform="matrix(1,0,0,1,-10,-10)">
        <path d="M442,537.5C442,535.016 439.984,533 437.5,533L392.5,533C390.016,533 388,535.016 388,537.5C388,539.984 390.016,542 392.5,542L437.5,542C439.984,542 442,539.984 442,537.5Z" style="fill:rgb(52,120,92);"/>
    </g>
    <g transform="matrix(1,0,0,1,-10,-10)">
        <path d="M530,537.5C530,535.016 527.984,533 525.5,533L480.5,533C478.016,533 476,535.016 476,537.5C476,539.984 478.016,542 480.5,542L525.5,542C527.984,542 530,539.984 530,537.5Z" style="fill:rgb(206,55,92);"/>
    </g>
    <g transform="matrix(1,0,0,1,-10,-10)">
        <path d="M377,420.5L753,420.5" style="fill:none;fill-rule:nonzero;stroke:rgb(196,196,196);stroke-opacity:0.3;stroke-width:1px;"/>
    </g>
    <g>
        <g transform="matrix(1.76007,0,0,1.74585,114.566,15.522)">
            <path d="M523.34,110.5C524.86,110.13 526.43,110.09 528,110.04C559.64,110.13 591.29,110.06 622.94,110.06C629.19,109.8 635.36,114.56 636.3,120.82C636.85,124.87 636.52,128.97 636.59,133.05C636.58,206.37 636.57,279.7 636.6,353.02C636.91,359.98 631.08,366.43 624.02,366.35C593.37,366.45 562.72,366.34 532.07,366.41C527.69,366.39 522.79,366.84 519.12,363.97C515.45,361.66 513.67,357.28 513.78,353.06C513.81,276.69 513.71,200.32 513.79,123.95C513.29,117.85 517.49,112.09 523.34,110.5" style="fill:white;fill-rule:nonzero;"/>
        </g>
        <g transform="matrix(1.1555,0,0,1,648.756,-107.281)">
            <path d="M496,460.5C496,457.464 493.867,455 491.24,455L381.76,455C379.133,455 377,457.464 377,460.5C377,463.536 379.133,466 381.76,466L491.24,466C493.867,466 496,463.536 496,460.5Z" style="fill:rgb(196,196,196);fill-opacity:0.7;"/>
        </g>
        <g transform="matrix(1.1555,0,0,1,649.091,-89.6776)">
            <path d="M496,460.5C496,457.464 493.867,455 491.24,455L381.76,455C379.133,455 377,457.464 377,460.5C377,463.536 379.133,466 381.76,466L491.24,466C493.867,466 496,463.536 496,460.5Z" style="fill:rgb(196,196,196);fill-opacity:0.7;"/>
        </g>
        <g transform="matrix(1.00205,0,0,1,706.605,-72.0919)">
            <path d="M496,460.5C496,457.464 493.541,455 490.511,455L382.489,455C379.459,455 377,457.464 377,460.5C377,463.536 379.459,466 382.489,466L490.511,466C493.541,466 496,463.536 496,460.5Z" style="fill:rgb(196,196,196);fill-opacity:0.7;"/>
        </g>
        <g transform="matrix(1.16484,0,0,1,645.149,-14.4417)">
            <path d="M496,460.5C496,457.464 493.884,455 491.278,455L381.722,455C379.116,455 377,457.464 377,460.5C377,463.536 379.116,466 381.722,466L491.278,466C493.884,466 496,463.536 496,460.5Z" style="fill:rgb(196,196,196);fill-opacity:0.7;"/>
        </g>
        <g transform="matrix(1.00205,0,0,1,706.569,3.68623)">
            <path d="M496,460.5C496,457.464 493.541,455 490.511,455L382.489,455C379.459,455 377,457.464 377,460.5C377,463.536 379.459,466 382.489,466L490.511,466C493.541,466 496,463.536 496,460.5Z" style="fill:rgb(196,196,196);fill-opacity:0.7;"/>
        </g>
        <g transform="matrix(1.71348,0.000222261,-0.000222261,1.71348,141.112,21.6447)">
            <path d="M508.92,123.98C508.79,115.05 515.98,107.27 524.63,105.8C557.75,106.24 590.89,105.75 624.01,106.04C633.22,106.25 641.25,114.79 640.94,124C640.91,197.66 640.95,271.33 640.94,344.99C640.81,350.46 641.7,356.27 639.31,361.4C636.59,367.7 629.96,372.07 623.07,371.94C591.38,371.96 559.69,371.91 528,371.97C521.15,372.26 514.84,368.33 511.16,362.71C508.28,356.89 508.82,350.25 508.87,343.96C508.93,270.64 508.82,197.3 508.92,123.98M523.34,110.5C517.49,112.09 513.29,117.85 513.79,123.95C513.71,200.32 513.81,276.69 513.78,353.06C513.67,357.28 515.45,361.66 519.12,363.97C522.79,366.84 527.69,366.39 532.07,366.41C562.72,366.34 593.37,366.45 624.02,366.35C631.08,366.43 636.91,359.98 636.6,353.02C636.57,279.7 636.58,206.37 636.59,133.05C636.52,128.97 636.85,124.87 636.3,120.82C635.36,114.56 629.19,109.8 622.94,110.06C591.29,110.06 559.64,110.13 528,110.04C526.43,110.09 524.86,110.13 523.34,110.5Z" style="fill:rgb(234,234,234);fill-rule:nonzero;"/>
        </g>
        <g transform="matrix(1,0,0,1,706.215,100.928)">
            <path d="M366,137C366,134.792 364.208,133 362,133L334,133C331.792,133 330,134.792 330,137L330,165C330,167.208 331.792,169 334,169L362,169C364.208,169 366,167.208 366,165L366,137Z" style="fill:rgb(255,144,78);"/>
        </g>
        <g transform="matrix(1,0,0,1,708.282,102.225)">
            <path d="M469,140C469,136.689 466.311,134 463,134L382,134C378.689,134 376,136.689 376,140C376,143.311 378.689,146 382,146L463,146C466.311,146 469,143.311 469,140Z" style="fill:rgb(134,134,134);fill-opacity:0.9;"/>
        </g>
        <g transform="matrix(1,0,0,1,708.428,287.872)">
            <path d="M469,140C469,136.689 466.311,134 463,134L382,134C378.689,134 376,136.689 376,140C376,143.311 378.689,146 382,146L463,146C466.311,146 469,143.311 469,140Z" style="fill:rgb(134,134,134);fill-opacity:0.9;"/>
        </g>
        <g transform="matrix(1,0,0,1,708.39,195.885)">
            <path d="M469,140C469,136.689 466.311,134 463,134L382,134C378.689,134 376,136.689 376,140C376,143.311 378.689,146 382,146L463,146C466.311,146 469,143.311 469,140Z" style="fill:rgb(134,134,134);fill-opacity:0.9;"/>
        </g>
        <g transform="matrix(1.1555,0,0,1,648.756,-198.934)">
            <path d="M496,460.5C496,457.464 493.867,455 491.24,455L381.76,455C379.133,455 377,457.464 377,460.5C377,463.536 379.133,466 381.76,466L491.24,466C493.867,466 496,463.536 496,460.5Z" style="fill:rgb(196,196,196);fill-opacity:0.7;"/>
        </g>
        <g transform="matrix(1,0,0,1,707.368,-181.12)">
            <path d="M496,460.5C496,457.464 493.536,455 490.5,455L382.5,455C379.464,455 377,457.464 377,460.5C377,463.536 379.464,466 382.5,466L490.5,466C493.536,466 496,463.536 496,460.5Z" style="fill:rgb(196,196,196);fill-opacity:0.7;"/>
        </g>
        <g transform="matrix(0.522384,-0.000306576,0.000306576,0.522384,918.143,174.406)">
            <path d="M415,237C415,230.377 409.623,225 403,225L387,225C380.377,225 375,230.377 375,237C375,243.623 380.377,249 387,249L403,249C409.623,249 415,243.623 415,237Z" style="fill:rgb(196,196,196);fill-opacity:0.3;"/>
        </g>
        <g transform="matrix(0.522384,-0.000306576,0.000306576,0.522384,949.226,174.047)">
            <path d="M415,237C415,230.377 409.623,225 403,225L387,225C380.377,225 375,230.377 375,237C375,243.623 380.377,249 387,249L403,249C409.623,249 415,243.623 415,237Z" style="fill:rgb(196,196,196);fill-opacity:0.3;"/>
        </g>
        <g transform="matrix(0.522384,-0.000306576,0.000306576,0.522384,978.966,173.844)">
            <path d="M415,237C415,230.377 409.623,225 403,225L387,225C380.377,225 375,230.377 375,237C375,243.623 380.377,249 387,249L403,249C409.623,249 415,243.623 415,237Z" style="fill:rgb(196,196,196);fill-opacity:0.3;"/>
        </g>
        <g transform="matrix(0.522384,-0.000306576,0.000306576,0.522384,888.498,174.836)">
            <path d="M415,237C415,230.377 409.623,225 403,225L387,225C380.377,225 375,230.377 375,237C375,243.623 380.377,249 387,249L403,249C409.623,249 415,243.623 415,237Z" style="fill:rgb(196,196,196);fill-opacity:0.3;"/>
        </g>
        <g transform="matrix(1,0,0,1,706.565,50.1649)">
            <path d="M366,281C366,278.792 364.208,277 362,277L334,277C331.792,277 330,278.792 330,281L330,309C330,311.208 331.792,313 334,313L362,313C364.208,313 366,311.208 366,309L366,281Z" style="fill:rgb(31,208,155);"/>
        </g>
        <g transform="matrix(0.367329,0,0,1,946.485,62.213)">
            <path d="M377,420.5L753,420.5" style="fill:none;fill-rule:nonzero;stroke:rgb(196,196,196);stroke-opacity:0.3;stroke-width:1px;"/>
        </g>
        <g transform="matrix(1,0,0,1,717.116,70.0322)">
            <path d="M496,356C496,353.792 494.208,352 492,352L474,352C471.792,352 470,353.792 470,356L470,360C470,362.208 471.792,364 474,364L492,364C494.208,364 496,362.208 496,360L496,356Z" style="fill:rgb(29,28,29);fill-opacity:0.13;"/>
        </g>
        <g transform="matrix(1,0,0,1,717.116,70.0322)">
            <path d="M480.668,361L479.836,361C479.743,361 479.665,360.977 479.604,360.932C479.545,360.884 479.503,360.825 479.476,360.756L479.044,359.576L476.648,359.576L476.216,360.756C476.195,360.817 476.152,360.873 476.088,360.924C476.027,360.975 475.951,361 475.86,361L475.024,361L477.296,355.216L478.396,355.216L480.668,361ZM476.924,358.816L478.768,358.816L478.064,356.892C478.032,356.807 477.996,356.707 477.956,356.592C477.919,356.475 477.881,356.348 477.844,356.212C477.807,356.348 477.769,356.475 477.732,356.592C477.697,356.709 477.663,356.812 477.628,356.9L476.924,358.816ZM482.456,358.964L482.456,361L481.38,361L481.38,355.216L483.264,355.216C483.65,355.216 483.985,355.261 484.268,355.352C484.55,355.443 484.784,355.569 484.968,355.732C485.152,355.895 485.288,356.089 485.376,356.316C485.464,356.543 485.508,356.791 485.508,357.06C485.508,357.34 485.461,357.597 485.368,357.832C485.274,358.064 485.134,358.264 484.948,358.432C484.761,358.6 484.528,358.731 484.248,358.824C483.968,358.917 483.64,358.964 483.264,358.964L482.456,358.964ZM482.456,358.124L483.264,358.124C483.461,358.124 483.633,358.1 483.78,358.052C483.926,358.001 484.048,357.931 484.144,357.84C484.24,357.747 484.312,357.635 484.36,357.504C484.408,357.371 484.432,357.223 484.432,357.06C484.432,356.905 484.408,356.765 484.36,356.64C484.312,356.515 484.24,356.408 484.144,356.32C484.048,356.232 483.926,356.165 483.78,356.12C483.633,356.072 483.461,356.048 483.264,356.048L482.456,356.048L482.456,358.124ZM487.536,358.964L487.536,361L486.46,361L486.46,355.216L488.344,355.216C488.73,355.216 489.065,355.261 489.348,355.352C489.63,355.443 489.864,355.569 490.048,355.732C490.232,355.895 490.368,356.089 490.456,356.316C490.544,356.543 490.588,356.791 490.588,357.06C490.588,357.34 490.541,357.597 490.448,357.832C490.354,358.064 490.214,358.264 490.028,358.432C489.841,358.6 489.608,358.731 489.328,358.824C489.048,358.917 488.72,358.964 488.344,358.964L487.536,358.964ZM487.536,358.124L488.344,358.124C488.541,358.124 488.713,358.1 488.86,358.052C489.006,358.001 489.128,357.931 489.224,357.84C489.32,357.747 489.392,357.635 489.44,357.504C489.488,357.371 489.512,357.223 489.512,357.06C489.512,356.905 489.488,356.765 489.44,356.64C489.392,356.515 489.32,356.408 489.224,356.32C489.128,356.232 489.006,356.165 488.86,356.12C488.713,356.072 488.541,356.048 488.344,356.048L487.536,356.048L487.536,358.124Z" style="fill:rgb(146,146,146);fill-rule:nonzero;"/>
        </g>
        <g transform="matrix(1,0,0,1,706.064,65.8259)">
            <path d="M366,355C366,352.792 364.208,351 362,351L334,351C331.792,351 330,352.792 330,355L330,383C330,385.208 331.792,387 334,387L362,387C364.208,387 366,385.208 366,383L366,355Z" style="fill:rgb(99,195,236);"/>
        </g>
        <g transform="matrix(1,0,0,1,707.32,53.695)">
            <path d="M496,460.5C496,457.464 493.536,455 490.5,455L382.5,455C379.464,455 377,457.464 377,460.5C377,463.536 379.464,466 382.5,466L490.5,466C493.536,466 496,463.536 496,460.5Z" style="fill:rgb(196,196,196);fill-opacity:0.7;"/>
        </g>
        <g transform="matrix(0.715749,0,0,1,814.474,88.8133)">
            <path d="M496,460.5C496,457.464 492.557,455 488.316,455L384.684,455C380.443,455 377,457.464 377,460.5C377,463.536 380.443,466 384.684,466L488.316,466C492.557,466 496,463.536 496,460.5Z" style="fill:rgb(196,196,196);fill-opacity:0.7;"/>
        </g>
    </g>
    <g transform="matrix(0.800515,0,0,1,782.257,45.3166)">
        <path d="M377,529C377,526.791 378.791,525 381,525L448,525C450.209,525 452,526.791 452,529L452,545C452,547.209 450.209,549 448,549L381,549C378.791,549 377,547.209 377,545L377,529Z" style="fill:white;"/>
    </g>
    <g transform="matrix(0.800515,0,0,1,782.257,45.3166)">
        <path d="M381,525.5L448,525.5C449.933,525.5 451.5,527.067 451.5,529L451.5,545C451.5,546.933 449.933,548.5 448,548.5L381,548.5C379.067,548.5 377.5,546.933 377.5,545L377.5,529C377.5,527.067 379.067,525.5 381,525.5Z" style="fill:none;fill-rule:nonzero;stroke:rgb(52,120,92);stroke-opacity:0.3;stroke-width:1px;"/>
    </g>
    <g transform="matrix(0.800443,0,0,1,782.845,45.3166)">
        <path d="M465,529C465,526.791 466.791,525 469,525L536,525C538.209,525 540,526.791 540,529L540,545C540,547.209 538.209,549 536,549L469,549C466.791,549 465,547.209 465,545L465,529Z" style="fill:white;"/>
    </g>
    <g transform="matrix(0.800443,0,0,1,782.845,45.3166)">
        <path d="M469,525.5L536,525.5C537.933,525.5 539.5,527.067 539.5,529L539.5,545C539.5,546.933 537.933,548.5 536,548.5L469,548.5C467.067,548.5 465.5,546.933 465.5,545L465.5,529C465.5,527.067 467.067,525.5 469,525.5Z" style="fill:none;fill-rule:nonzero;stroke:rgb(206,55,92);stroke-opacity:0.3;stroke-width:1px;"/>
    </g>
    <g transform="matrix(0.741544,0,0,1,806.332,45.3166)">
        <path d="M442,537.5C442,535.016 439.281,533 435.932,533L394.068,533C390.719,533 388,535.016 388,537.5C388,539.984 390.719,542 394.068,542L435.932,542C439.281,542 442,539.984 442,537.5Z" style="fill:rgb(52,120,92);"/>
    </g>
    <g transform="matrix(0.741316,0,0,1,812.138,45.3166)">
        <path d="M530,537.5C530,535.016 527.28,533 523.93,533L482.07,533C478.72,533 476,535.016 476,537.5C476,539.984 478.72,542 482.07,542L523.93,542C527.28,542 530,539.984 530,537.5Z" style="fill:rgb(206,55,92);"/>
    </g>
    <g transform="matrix(1,0,0,1,707.703,58.9023)">
        <path d="M464,438C464,434.689 461.311,432 458,432L383,432C379.689,432 377,434.689 377,438C377,441.311 379.689,444 383,444L458,444C461.311,444 464,441.311 464,438Z" style="fill:rgb(134,134,134);fill-opacity:0.65;"/>
    </g>
    <g transform="matrix(1.20529,0,0,1,629.821,93.7936)">
        <path d="M464,438C464,434.689 461.769,432 459.022,432L381.978,432C379.231,432 377,434.689 377,438C377,441.311 379.231,444 381.978,444L459.022,444C461.769,444 464,441.311 464,438Z" style="fill:rgb(134,134,134);fill-opacity:0.65;"/>
    </g>
</svg>
